<svg width="68" height="68" viewBox="0 0 68 68" fill="none" xmlns="http://www.w3.org/2000/svg">
<path d="M15.4267 63.6091H11.0358H6.68383V59.2571V54.8663H11.0358V50.4754H6.68383H2.29297V54.8663V59.2571V63.6091V68H6.68383H11.0358H15.4267H19.8175V63.6091V59.2571H15.4267V63.6091Z" fill="#8C7B75"/>
<path d="M37.342 54.8663H32.9512V59.2571H37.342V54.8663Z" fill="#8C7B75"/>
<path d="M24.2092 54.8663H19.8184V59.2571H24.2092V54.8663Z" fill="#8C7B75"/>
<path d="M50.4755 54.8663V59.2571V63.6091H46.0847H41.7327V59.2571H37.3418V63.6091V68H41.7327H46.0847H50.4755H54.8664V63.6091V59.2571V54.8663V50.4754H50.4755V54.8663Z" fill="#8C7B75"/>
<path d="M28.561 50.4754H24.209V54.8663H28.561H32.9518V50.4754H28.561Z" fill="#8C7B75"/>
<path d="M15.426 46.0846H11.0352V50.4754H15.426V46.0846Z" fill="#8C7B75"/>
<path d="M19.8166 41.7326V37.3417H15.4258V41.7326V46.0846H19.8166V41.7326Z" fill="#8C7B75"/>
<path d="M54.8672 46.0846V50.4754H59.258H63.61V46.0846H59.258H54.8672Z" fill="#8C7B75"/>
<path d="M59.258 37.3417H63.61V32.9509H59.258H54.8672V37.3417H59.258Z" fill="#8C7B75"/>
<path d="M63.6094 37.3417V41.7326V46.0846H68.0002V41.7326V37.3417H63.6094Z" fill="#8C7B75"/>
<path d="M15.426 32.9509H11.0352V37.3417H15.426V32.9509Z" fill="#8C7B75"/>
<path d="M6.68383 28.56V24.208V19.8172H11.0358H15.4267H19.8175H24.2084V15.4263V11.0354V6.68344H19.8175V11.0354V15.4263H15.4267H11.0358H6.68383H2.29297V19.8172V24.208V28.56V32.9509H6.68383H11.0358V28.56H6.68383Z" fill="#8C7B75"/>
<path d="M32.9512 15.4263V19.8172H37.342H41.7329H46.0849H50.4757V24.208V28.56V32.9509H54.8666V28.56V24.208V19.8172V15.4263H50.4757H46.0849H41.7329H37.342V11.0354V6.68344H32.9512V11.0354V15.4263Z" fill="#8C7B75"/>
<path d="M32.9518 6.68343V2.29257H28.561H24.209V6.68343H28.561H32.9518Z" fill="#8C7B75"/>
<path d="M13.1337 61.3166H8.74286H4.39086V56.9646V52.5737H8.74286V48.1829H4.39086H0V52.5737V56.9646V61.3166V65.7074H4.39086H8.74286H13.1337H17.5246V61.3166V56.9646H13.1337V61.3166Z" fill="#6D4C41"/>
<path d="M35.0491 52.5737H30.6582V56.9646H35.0491V52.5737Z" fill="#6D4C41"/>
<path d="M21.9162 52.5737H17.5254V56.9646H21.9162V52.5737Z" fill="#6D4C41"/>
<path d="M48.1825 52.5737V56.9646V61.3166H43.8305H39.4397V56.9646H35.0488V61.3166V65.7074H39.4397H43.8305H48.1825H52.5734V61.3166V56.9646V52.5737V48.1829H48.1825V52.5737Z" fill="#6D4C41"/>
<path d="M26.268 48.1829H21.916V52.5737H26.268H30.6589V48.1829H26.268Z" fill="#6D4C41"/>
<path d="M13.133 43.8309H8.74219V48.2217H13.133V43.8309Z" fill="#6D4C41"/>
<path d="M17.5237 39.44V35.0491H13.1328V39.44V43.8308H17.5237V39.44Z" fill="#6D4C41"/>
<path d="M52.5742 43.8309V48.1829H56.9651H61.3171V43.8309H56.9651H52.5742Z" fill="#6D4C41"/>
<path d="M56.9651 35.0492H61.3171V30.6583H56.9651H52.5742V35.0492H56.9651Z" fill="#6D4C41"/>
<path d="M61.3164 35.0491V39.44V43.8308H65.7073V39.44V35.0491H61.3164Z" fill="#6D4C41"/>
<path d="M13.133 30.6583H8.74219V35.0492H13.133V30.6583Z" fill="#6D4C41"/>
<path d="M4.39086 26.2674V21.9154V17.5246H8.74286H13.1337H17.5246H21.9154V13.1337V8.74287V4.39087H17.5246V8.74287V13.1337H13.1337H8.74286H4.39086H0V17.5246V21.9154V26.2674V30.6583H4.39086H8.74286V26.2674H4.39086Z" fill="#6D4C41"/>
<path d="M30.6582 13.1337V17.5246H35.0491H39.4399H43.8308H48.1828V21.9154V26.2674V30.6583H52.5736V26.2674V21.9154V17.5246V13.1337H48.1828H43.8308H39.4399H35.0491V8.74287V4.39087H30.6582V8.74287V13.1337Z" fill="#6D4C41"/>
<path d="M30.6589 4.39086V0H26.268H21.916V4.39086H26.268H30.6589Z" fill="#6D4C41"/>
</svg>
