<svg width="43" height="60" viewBox="0 0 43 60" fill="none" xmlns="http://www.w3.org/2000/svg">
<path d="M32.25 59.1384H21.5V48.3884H24.1472H25.0475H32.25V59.1384Z" fill="#A7BFBB"/>
<path d="M37.625 5.375H10.75V10.75H5.375V26.875H16.125V10.75H32.25V26.875H28.6353H28.1919H26.875V32.25H25.0341H24.1338H21.5V43H32.25V37.625V32.25H43V5.375H37.625Z" fill="#A7BFBB"/>
<path d="M32.25 5.375V0H5.375V5.375H0V21.5H10.75V5.375H26.875V21.5H23.2738H22.8169H21.5V26.875H19.6591H18.7722H16.125V37.625H26.875V32.25V26.875H37.625V5.375H32.25Z" fill="#16B89A"/>
<path d="M26.875 53.75H16.125V43H18.7722H19.6591H26.875V53.75Z" fill="#16B89A"/>
</svg>
