<svg width="58" height="59" viewBox="0 0 58 59" fill="none" xmlns="http://www.w3.org/2000/svg">
<path d="M22 53H17V56H22V53Z" fill="#F63C51"/>
<path d="M43 53H36V56H43V53Z" fill="#F63C51"/>
<path d="M34 46H26V49H34V46Z" fill="#F63C51"/>
<path d="M19 56H12V59H19V56Z" fill="#F63C51"/>
<path d="M48 56H39V59H48V56Z" fill="#F63C51"/>
<path d="M28 49H20V53H28V49Z" fill="#F63C51"/>
<path d="M40 49H32V53H40V49Z" fill="#F63C51"/>
<path d="M14 49H9V56H14V49Z" fill="#F63C51"/>
<path d="M51 49H46V56H51V49Z" fill="#F63C51"/>
<path d="M17 43H12V49H17V43Z" fill="#F63C51"/>
<path d="M48 43H43V49H48V43Z" fill="#F63C51"/>
<path d="M19 34H15V43H19V34Z" fill="#F63C51"/>
<path d="M45 34H41V43H45V34Z" fill="#F63C51"/>
<path d="M16 31H12V36H16V31Z" fill="#F63C51"/>
<path d="M13 28H9V33H13V28Z" fill="#F63C51"/>
<path d="M9 25H5V30H9V25Z" fill="#F63C51"/>
<path d="M5.2696 22.8993H2V26.2059H5.2696V22.8993Z" fill="#F63C51"/>
<path d="M57.7012 22.8993H54.4316V26.2059H57.7012V22.8993Z" fill="#F63C51"/>
<path d="M55 23H51V30H55V23Z" fill="#F63C51"/>
<path d="M51 28H47V33H51V28Z" fill="#F63C51"/>
<path d="M48 31H44V36H48V31Z" fill="#F63C51"/>
<path d="M25 20H5V25H25V20Z" fill="#F63C51"/>
<path d="M55 20H35V25H55V20Z" fill="#F63C51"/>
<path d="M27 13H22V20H27V13Z" fill="#F63C51"/>
<path d="M38 13H33V20H38V13Z" fill="#F63C51"/>
<path d="M30 6H25V13H30V6Z" fill="#F63C51"/>
<path d="M31.4854 3H28.2158V6.30663H31.4854V3Z" fill="#F63C51"/>
<path d="M35 6H30V13H35V6Z" fill="#F63C51"/>
<path d="M20 50H15V53H20V50Z" fill="white"/>
<path d="M41 50H34V53H41V50Z" fill="white"/>
<path d="M32 43H24V46H32V43Z" fill="white"/>
<path d="M17 53H10V56H17V53Z" fill="white"/>
<path d="M46 53H37V56H46V53Z" fill="white"/>
<path d="M26 46H18V50H26V46Z" fill="white"/>
<path d="M38 46H30V50H38V46Z" fill="white"/>
<path d="M12 46H7V53H12V46Z" fill="white"/>
<path d="M49 46H44V53H49V46Z" fill="white"/>
<path d="M15 40H10V46H15V40Z" fill="white"/>
<path d="M46 40H41V46H46V40Z" fill="white"/>
<path d="M17 31H13V40H17V31Z" fill="white"/>
<path d="M43 31H39V40H43V31Z" fill="white"/>
<path d="M14 28H10V33H14V28Z" fill="white"/>
<path d="M11 25H7V30H11V25Z" fill="white"/>
<path d="M7 22H3V27H7V22Z" fill="white"/>
<path d="M3.2696 19.8993H0V23.2059H3.2696V19.8993Z" fill="white"/>
<path d="M55.7012 19.8993H52.4316V23.2059H55.7012V19.8993Z" fill="white"/>
<path d="M53 20H49V27H53V20Z" fill="white"/>
<path d="M49 25H45V30H49V25Z" fill="white"/>
<path d="M46 28H42V33H46V28Z" fill="white"/>
<path d="M23 17H3V22H23V17Z" fill="white"/>
<path d="M53 17H33V22H53V17Z" fill="white"/>
<path d="M25 10H20V17H25V10Z" fill="white"/>
<path d="M36 10H31V17H36V10Z" fill="white"/>
<path d="M28 3H23V10H28V3Z" fill="white"/>
<path d="M29.4854 0H26.2158V3.30663H29.4854V0Z" fill="white"/>
<path d="M33 3H28V10H33V3Z" fill="white"/>
</svg>
