<svg width="78" height="53" viewBox="0 0 78 53" fill="none" xmlns="http://www.w3.org/2000/svg">
<path d="M28.1467 46.7769H21.915V53H28.1467V46.7769Z" fill="#AF8EB5"/>
<path d="M71.7683 34.3307V28.1076H59.305V21.8845H53.0733V15.6615H59.305V9.43836H65.5366V3.21527H53.0733V9.43836H46.8416V15.6615H34.3782V9.43836H28.1465V3.21527H15.6831V9.43836H21.9148V15.6615H28.1465V21.8845H21.9148V28.1076H9.45142V34.3307H3.21973V40.5538H15.6831V34.3307H21.9148V40.5538H28.1465V46.7769H34.3782V40.5538H46.8416V46.7769H53.0733V40.5538H59.305V34.3307H65.5366V40.5538H78V34.3307H71.7683ZM28.1465 34.3307V28.1076H34.3782V34.3307H28.1465ZM46.8416 34.3307V28.1076H53.0733V34.3307H46.8416Z" fill="#AF8EB5"/>
<path d="M59.3049 46.7769H53.0732V53H59.3049V46.7769Z" fill="#AF8EB5"/>
<path d="M24.927 43.5616H18.6953V49.7847H24.927V43.5616Z" fill="#7B1FA2"/>
<path d="M68.5486 31.1155V24.8924H56.0852V18.6693H49.8535V12.4462H56.0852V6.22309H62.3169V0H49.8535V6.22309H43.6218V12.4462H31.1585V6.22309H24.9268V0H12.4634V6.22309H18.6951V12.4462H24.9268V18.6693H18.6951V24.8924H6.23169V31.1155H0V37.3386H12.4634V31.1155H18.6951V37.3386H24.9268V43.5616H31.1585V37.3386H43.6218V43.5616H49.8535V37.3386H56.0852V31.1155H62.3169V37.3386H74.7803V31.1155H68.5486ZM24.9268 31.1155V24.8924H31.1585V31.1155H24.9268ZM43.6218 31.1155V24.8924H49.8535V31.1155H43.6218Z" fill="#7B1FA2"/>
<path d="M56.0852 43.5616H49.8535V49.7847H56.0852V43.5616Z" fill="#7B1FA2"/>
</svg>
