<svg width="44" height="60" viewBox="0 0 44 60" fill="none" xmlns="http://www.w3.org/2000/svg">
<path d="M21.0359 32.9047H17.2085V36.7775H21.0359V32.9047Z" fill="#FFFFE5"/>
<path d="M28.6906 32.9047H24.8633V36.7775H28.6906V32.9047Z" fill="#FFFFE5"/>
<path d="M32.5178 25.1589H28.6904V32.9047H32.5178V25.1589Z" fill="#FFFFE5"/>
<path d="M17.2082 25.1589H13.3809V32.9047H17.2082V25.1589Z" fill="#FFFFE5"/>
<path d="M17.2082 40.6356H13.3809V56.1271H17.2082V40.6356Z" fill="#FFFFE5"/>
<path d="M24.863 36.7775H21.0356V44.9076H24.863V36.7775Z" fill="#FFFFE5"/>
<path d="M28.6906 56.1271H17.2085V60H28.6906V56.1271Z" fill="#FFFFE5"/>
<path d="M28.6906 48.3814H17.2085V52.2543H28.6906V48.3814Z" fill="#FFFFE5"/>
<path d="M13.3811 36.7628H9.55371V40.6356H13.3811V36.7628Z" fill="#FFFFE5"/>
<path d="M9.55343 29.0318H5.72607V36.7775H9.55343V29.0318Z" fill="#FFFFE5"/>
<path d="M5.72628 17.4132H1.89893V29.0318H5.72628V17.4132Z" fill="#FFFFE5"/>
<path d="M9.55343 9.66742H5.72607V17.4132H9.55343V9.66742Z" fill="#FFFFE5"/>
<path d="M17.1938 5.79454H9.55371V9.66742H17.1938V5.79454Z" fill="#FFFFE5"/>
<path d="M28.676 1.92166H17.2085V5.79454H28.676V1.92166Z" fill="#FFFFE5"/>
<path d="M36.3451 5.79454H28.6904V9.66742H36.3451V5.79454Z" fill="#FFFFE5"/>
<path d="M40.1726 9.66742H36.3452V17.4132H40.1726V9.66742Z" fill="#FFFFE5"/>
<path d="M43.9997 17.4132H40.1724V29.0318H43.9997V17.4132Z" fill="#FFFFE5"/>
<path d="M40.1726 29.0318H36.3452V36.7628H40.1726V29.0318Z" fill="#FFFFE5"/>
<path d="M36.3449 36.7628H32.5176V40.6356H36.3449V36.7628Z" fill="#FFFFE5"/>
<path d="M32.5178 40.6356H28.6904V56.1271H32.5178V40.6356Z" fill="#FFFFE5"/>
<path d="M19.1369 30.9682H15.3096V34.8411H19.1369V30.9682Z" fill="#FFA000"/>
<path d="M26.7917 30.9682H22.9644V34.8411H26.7917V30.9682Z" fill="#FFA000"/>
<path d="M30.6189 23.2225H26.7915V30.9682H30.6189V23.2225Z" fill="#FFA000"/>
<path d="M15.2946 23.2225H11.4673V30.9682H15.2946V23.2225Z" fill="#FFA000"/>
<path d="M15.2946 38.714H11.4673V54.2055H15.2946V38.714Z" fill="#FFA000"/>
<path d="M22.9641 34.8411H19.1367V42.9712H22.9641V34.8411Z" fill="#FFA000"/>
<path d="M26.7916 54.2055H15.3096V58.0783H26.7916V54.2055Z" fill="#FFA000"/>
<path d="M26.7916 46.4449H15.3096V50.3178H26.7916V46.4449Z" fill="#FFA000"/>
<path d="M11.4821 34.8411H7.65479V38.714H11.4821V34.8411Z" fill="#FFA000"/>
<path d="M7.65451 27.1101H3.82715V34.8559H7.65451V27.1101Z" fill="#FFA000"/>
<path d="M3.82736 15.4915H0V27.1101H3.82736V15.4915Z" fill="#FFA000"/>
<path d="M7.65451 7.74576H3.82715V15.4915H7.65451V7.74576Z" fill="#FFA000"/>
<path d="M15.2949 3.87288H7.65479V7.74575H15.2949V3.87288Z" fill="#FFA000"/>
<path d="M26.777 0H15.3096V3.87288H26.777V0Z" fill="#FFA000"/>
<path d="M34.4316 3.87288H26.7769V7.74575H34.4316V3.87288Z" fill="#FFA000"/>
<path d="M38.259 7.74576H34.4316V15.4915H38.259V7.74576Z" fill="#FFA000"/>
<path d="M42.0861 15.4915H38.2588V27.1101H42.0861V15.4915Z" fill="#FFA000"/>
<path d="M38.259 27.1101H34.4316V34.8411H38.259V27.1101Z" fill="#FFA000"/>
<path d="M34.4318 34.8411H30.6045V38.714H34.4318V34.8411Z" fill="#FFA000"/>
<path d="M30.6189 38.714H26.7915V54.2055H30.6189V38.714Z" fill="#FFA000"/>
</svg>
