<svg width="61" height="61" viewBox="0 0 61 61" fill="none" xmlns="http://www.w3.org/2000/svg">
<path d="M21.5967 31.2819H16.7959V36.0827H21.5967V31.2819Z" fill="#C2C2C2"/>
<path d="M31.2259 40.9114H26.4111V45.7262H31.2259V40.9114Z" fill="#C2C2C2"/>
<path d="M26.4114 45.7122H21.5967V50.5269H26.4114V45.7122Z" fill="#C2C2C2"/>
<path d="M21.5827 50.5269H16.7959V55.3137H21.5827V50.5269Z" fill="#C2C2C2"/>
<path d="M16.7816 55.3417H11.9668V60.1565H16.7816V55.3417Z" fill="#C2C2C2"/>
<path d="M16.7959 36.0687H11.9951V40.8695H16.7959V36.0687Z" fill="#C2C2C2"/>
<path d="M12.0088 40.8555H7.20801V45.6562H12.0088V40.8555Z" fill="#C2C2C2"/>
<path d="M7.22231 45.6562H2.39355V50.485H7.22231V45.6562Z" fill="#C2C2C2"/>
<path d="M48.0781 26.4672H33.6338V31.2819H48.0781V26.4672Z" fill="#C2C2C2"/>
<path d="M52.8782 21.6524H48.0635V26.4672H52.8782V21.6524Z" fill="#C2C2C2"/>
<path d="M52.8782 33.6613H48.0635V38.4761H52.8782V33.6613Z" fill="#C2C2C2"/>
<path d="M57.6937 16.8376H52.8789V21.6524H57.6937V16.8376Z" fill="#C2C2C2"/>
<path d="M57.6937 28.8745H52.8789V33.6893H57.6937V28.8745Z" fill="#C2C2C2"/>
<path d="M60.1009 21.6524H55.2861V28.8745H60.1009V21.6524Z" fill="#C2C2C2"/>
<path d="M48.0782 36.0687H31.2266V40.9114H48.0782V36.0687Z" fill="#C2C2C2"/>
<path d="M28.8187 9.61551H24.0039V14.4303H28.8187V9.61551Z" fill="#C2C2C2"/>
<path d="M33.6331 4.80075H28.8184V9.61551H33.6331V4.80075Z" fill="#C2C2C2"/>
<path d="M45.6702 4.80075H40.8555V9.61551H45.6702V4.80075Z" fill="#C2C2C2"/>
<path d="M40.8558 9.61551H36.041V14.4303H40.8558V9.61551Z" fill="#C2C2C2"/>
<path d="M36.0413 14.4303H31.2266V19.245H36.0413V14.4303Z" fill="#C2C2C2"/>
<path d="M36.0413 16.8376H31.2266V28.8745H36.0413V16.8376Z" fill="#C2C2C2"/>
<path d="M40.8559 2.39337H33.6338V7.20813H40.8559V2.39337Z" fill="#C2C2C2"/>
<path d="M26.4114 14.4303H21.5967V31.2819H26.4114V14.4303Z" fill="#C2C2C2"/>
<path d="M19.2031 28.8885H14.4023V33.6893H19.2031V28.8885Z" fill="#616161"/>
<path d="M28.8323 38.5181H24.0176V43.3328H28.8323V38.5181Z" fill="#616161"/>
<path d="M24.0179 43.3188H19.2031V48.1336H24.0179V43.3188Z" fill="#616161"/>
<path d="M19.1891 48.1336H14.4023V52.9204H19.1891V48.1336Z" fill="#616161"/>
<path d="M14.388 52.9484H9.57324V57.7631H14.388V52.9484Z" fill="#616161"/>
<path d="M14.4023 33.6753H9.60156V38.4761H14.4023V33.6753Z" fill="#616161"/>
<path d="M9.61522 38.4621H4.81445V43.2629H9.61522V38.4621Z" fill="#616161"/>
<path d="M4.82876 43.2628H0V48.0916H4.82876V43.2628Z" fill="#616161"/>
<path d="M45.6845 24.0738H31.2402V28.8885H45.6845V24.0738Z" fill="#616161"/>
<path d="M50.4847 19.259H45.6699V24.0738H50.4847V19.259Z" fill="#616161"/>
<path d="M50.4847 31.2679H45.6699V36.0827H50.4847V31.2679Z" fill="#616161"/>
<path d="M55.3001 14.4443H50.4854V19.259H55.3001V14.4443Z" fill="#616161"/>
<path d="M55.3001 26.4812H50.4854V31.2959H55.3001V26.4812Z" fill="#616161"/>
<path d="M57.7073 19.259H52.8926V26.4812H57.7073V19.259Z" fill="#616161"/>
<path d="M45.6847 33.6753H28.833V38.5181H45.6847V33.6753Z" fill="#616161"/>
<path d="M26.4251 7.22214H21.6104V12.0369H26.4251V7.22214Z" fill="#616161"/>
<path d="M31.2396 2.40738H26.4248V7.22214H31.2396V2.40738Z" fill="#616161"/>
<path d="M43.2767 2.40738H38.4619V7.22214H43.2767V2.40738Z" fill="#616161"/>
<path d="M38.4622 7.22214H33.6475V12.0369H38.4622V7.22214Z" fill="#616161"/>
<path d="M33.6478 12.0369H28.833V16.8517H33.6478V12.0369Z" fill="#616161"/>
<path d="M33.6478 14.4443H28.833V26.4812H33.6478V14.4443Z" fill="#616161"/>
<path d="M38.4624 0H31.2402V4.81476H38.4624V0Z" fill="#616161"/>
<path d="M24.0179 12.0369H19.2031V28.8886H24.0179V12.0369Z" fill="#616161"/>
</svg>
