<svg xmlns="http://www.w3.org/2000/svg" width="39" height="36" fill="none" viewBox="0 0 39 36">
    <path fill="#FCB326" d="M5 10c2.761 0 5-2.239 5-5S7.761 0 5 0 0 2.239 0 5s2.239 5 5 5z"/>
    <path fill="#63C5EA" d="M5 23c2.761 0 5-2.239 5-5s-2.239-5-5-5-5 2.239-5 5 2.239 5 5 5z"/>
    <path fill="#976FB7" d="M5 36c2.761 0 5-2.239 5-5s-2.239-5-5-5-5 2.239-5 5 2.239 5 5 5z"/>
    <path fill="#7F59B0" d="M37 3H17c-1.105 0-2 .895-2 2s.895 2 2 2h20c1.105 0 2-.895 2-2s-.895-2-2-2z"/>
    <path fill="#E84C8B" d="M37 16H17c-1.105 0-2 .895-2 2s.895 2 2 2h20c1.105 0 2-.895 2-2s-.895-2-2-2z"/>
    <path fill="#FCB326" d="M37 29H17c-1.105 0-2 .895-2 2s.895 2 2 2h20c1.105 0 2-.895 2-2s-.895-2-2-2z"/>
</svg>
