<?xml version="1.0" encoding="utf-8"?>
<!-- Generator: Adobe Illustrator 24.1.2, SVG Export Plug-In . SVG Version: 6.00 Build 0)  -->
<svg version="1.1" id="Layer_1" xmlns="http://www.w3.org/2000/svg" xmlns:xlink="http://www.w3.org/1999/xlink" x="0px" y="0px"
	 viewBox="0 0 24.2 35.5" style="enable-background:new 0 0 24.2 35.5;" xml:space="preserve">
<style type="text/css">
	.st0{fill:#18bc9c;}
</style>
<g>
	<circle class="st0" cx="15.4" cy="33.4" r="1.9"/>
	<path class="st0" d="M20.2,25.6c-1.3-0.4-2.5-0.5-3.7-0.5c-0.9,0-1.8,0.1-2.6,0.3c-1.4,0.3-2.6,0.9-3.5,1.6c-0.7,0.5-1.3,1-1.9,1.6
		c-0.8,0.8-1.3,1.6-1.7,2.2c-0.4,0.6-0.5,1-0.6,1.1C6,32.7,6.4,33.7,7.3,34c0.9,0.4,1.9,0,2.2-0.9l0,0l0,0c0,0,0.2-0.4,0.4-0.8
		c0.2-0.3,0.5-0.8,0.9-1.2c0.3-0.3,0.6-0.6,1-1c0.6-0.5,1.2-0.9,2-1.2c0.8-0.3,1.7-0.5,2.7-0.5c0.8,0,1.7,0.1,2.8,0.4
		c0.9,0.2,1.8-0.3,2.1-1.2C21.6,26.8,21.1,25.8,20.2,25.6z" />
	<path class="st0" d="M23.6,20.1L8.2,6.2C7.7,6.9,6.8,7.8,5.3,8.6c-2,1.1-4.1,1.3-5,1.3c0,0,0,0,0,0v20.4c0,0.9,1.3,1.4,1.7,0.5
		c3.2-6.7,10-12.2,20.8-9.2C23.7,21.9,24.3,20.7,23.6,20.1z"/>
	<path class="st0" d="M6.3,4.4l-4.4-4C1.2-0.1,0.3,0.3,0.3,1.2v6.2c0.6,0,2.3-0.1,3.7-0.9C5.4,5.6,6,4.8,6.3,4.4z" />
</g>
</svg>
