<svg id="Layer_1" data-name="Layer 1" xmlns="http://www.w3.org/2000/svg" viewBox="0 0 2319.06 1967.88"><defs><style>.cls-1{fill:none;stroke:#7b1fa2;stroke-linecap:round;stroke-linejoin:round;stroke-width:4px;}</style></defs><title>ljubicastaArtboard 1</title><g id="CIRCLE"><path class="cls-1" d="M1025.46,1430.38a7.52,7.52,0,1,1-7.52,7.52,7.52,7.52,0,0,1,7.52-7.52Z"/></g><g id="CIRCLE-2" data-name="CIRCLE"><path class="cls-1" d="M1126.37,1422.19a7.52,7.52,0,1,1-7.52,7.52,7.52,7.52,0,0,1,7.52-7.52Z"/></g><g id="CIRCLE-3" data-name="CIRCLE"><path class="cls-1" d="M840.11,1222.34a7.52,7.52,0,1,1-7.52,7.52,7.52,7.52,0,0,1,7.52-7.52Z"/></g><g id="CIRCLE-4" data-name="CIRCLE"><path class="cls-1" d="M977.59,1749.2a7.52,7.52,0,1,1-7.52,7.52,7.52,7.52,0,0,1,7.52-7.52Z"/></g><g id="CIRCLE-5" data-name="CIRCLE"><path class="cls-1" d="M851.42,1693.08a7.52,7.52,0,1,1-7.52,7.52,7.52,7.52,0,0,1,7.52-7.52Z"/></g><g id="CIRCLE-6" data-name="CIRCLE"><path class="cls-1" d="M894.5,1562.72a7.52,7.52,0,1,1-7.52,7.52,7.52,7.52,0,0,1,7.52-7.52Z"/></g><g id="CIRCLE-7" data-name="CIRCLE"><path class="cls-1" d="M836.59,1392a7.52,7.52,0,1,1-7.52,7.52,7.52,7.52,0,0,1,7.52-7.52Z"/></g><g id="CIRCLE-8" data-name="CIRCLE"><path class="cls-1" d="M621.82,1238.37a7.52,7.52,0,1,1-7.52,7.52,7.52,7.52,0,0,1,7.52-7.52Z"/></g><g id="CIRCLE-9" data-name="CIRCLE"><path class="cls-1" d="M579.73,1315.36a7.52,7.52,0,1,1-7.52,7.52,7.52,7.52,0,0,1,7.52-7.52Z"/></g><g id="CIRCLE-10" data-name="CIRCLE"><path class="cls-1" d="M488,1229.4a7.52,7.52,0,1,1-7.52,7.52,7.52,7.52,0,0,1,7.52-7.52Z"/></g><g id="CIRCLE-11" data-name="CIRCLE"><path class="cls-1" d="M460.21,1330.88a7.52,7.52,0,1,1-7.52,7.52,7.52,7.52,0,0,1,7.52-7.52Z"/></g><g id="CIRCLE-12" data-name="CIRCLE"><path class="cls-1" d="M416,1434.45a7.52,7.52,0,1,1-7.52,7.52,7.52,7.52,0,0,1,7.52-7.52Z"/></g><g id="CIRCLE-13" data-name="CIRCLE"><path class="cls-1" d="M512.63,1605.41a7.52,7.52,0,1,1-7.52,7.52,7.52,7.52,0,0,1,7.52-7.52Z"/></g><g id="CIRCLE-14" data-name="CIRCLE"><path class="cls-1" d="M644.81,1650.08a7.52,7.52,0,1,1-7.52,7.52,7.52,7.52,0,0,1,7.52-7.52Z"/></g><g id="LWPOLYLINE"><polyline class="cls-1" points="851.42 1700.61 830.88 1680.07 830.88 1634.38 796.49 1599.99 796.49 1568.1 742.77 1514.38 332.45 1514.38 112.93 1295.71"/></g><g id="LWPOLYLINE-2" data-name="LWPOLYLINE"><polyline class="cls-1" points="512.63 1612.94 491.28 1591.58 409.43 1591.58 366.81 1634.21 267.27 1634.21 94.58 1461.52"/></g><g id="LWPOLYLINE-3" data-name="LWPOLYLINE"><polyline class="cls-1" points="644.81 1657.61 618.83 1683.59 497.71 1683.59 488.59 1674.48 455.06 1674.48 431.51 1698.03 431.51 1724.3 410.79 1745.03 207.05 1745.03 95.45 1633.42"/></g><g id="LWPOLYLINE-4" data-name="LWPOLYLINE"><polyline class="cls-1" points="416.05 1441.98 381.36 1441.98 168.52 1229.14"/></g><g id="LWPOLYLINE-5" data-name="LWPOLYLINE"><polyline class="cls-1" points="894.5 1570.25 894.5 1536.6 798.8 1440.89 482.44 1440.89 143.78 1102.24"/></g><g id="LWPOLYLINE-6" data-name="LWPOLYLINE"><polyline class="cls-1" points="579.73 1322.88 558.1 1301.26 440.03 1301.26 131.52 992.75"/></g><g id="LWPOLYLINE-7" data-name="LWPOLYLINE"><polyline class="cls-1" points="460.21 1338.41 495.88 1374.08 811.15 1374.08 836.47 1399.39"/></g><g id="LWPOLYLINE-8" data-name="LWPOLYLINE"><line class="cls-1" x1="487.96" y1="1236.92" x2="174.44" y2="923.4"/></g><g id="LWPOLYLINE-9" data-name="LWPOLYLINE"><polyline class="cls-1" points="621.82 1245.89 349.97 974.05 321.98 974.05 286.09 938.16 286.09 743.74 234.97 692.62 234.97 637.06 185.71 587.8 185.71 473.69 130.1 418.07"/></g><g id="LWPOLYLINE-10" data-name="LWPOLYLINE"><polyline class="cls-1" points="1025.46 1437.9 977.23 1389.67 977.23 1347.47 859.62 1229.86 840.11 1229.86"/></g><g id="LWPOLYLINE-11" data-name="LWPOLYLINE"><polyline class="cls-1" points="1126.37 1429.71 1126.37 1411.59 913.81 1199.03 913.81 1026.45 865.07 977.71 865.07 936.39 837.03 908.35 750.23 908.35 723.35 881.47 723.35 849.92 688.15 814.72 688.15 299.05 725.25 261.95 725.25 192.99 740.07 178.17"/></g><g id="CIRCLE-15" data-name="CIRCLE"><path class="cls-1" d="M1579,1630.55a7.52,7.52,0,1,1-7.52,7.52,7.52,7.52,0,0,1,7.52-7.52Z"/></g><g id="CIRCLE-16" data-name="CIRCLE"><path class="cls-1" d="M1493.79,1465.35a7.52,7.52,0,1,1-7.52,7.52,7.52,7.52,0,0,1,7.52-7.52Z"/></g><g id="CIRCLE-17" data-name="CIRCLE"><path class="cls-1" d="M1522.82,1168.25a7.52,7.52,0,1,1-7.52,7.52,7.52,7.52,0,0,1,7.52-7.52Z"/></g><g id="CIRCLE-18" data-name="CIRCLE"><path class="cls-1" d="M1457.6,1642.06a7.52,7.52,0,1,1-7.52,7.52,7.52,7.52,0,0,1,7.52-7.52Z"/></g><g id="CIRCLE-19" data-name="CIRCLE"><path class="cls-1" d="M1374.74,1676a7.52,7.52,0,1,1-7.52,7.52,7.52,7.52,0,0,1,7.52-7.52Z"/></g><g id="CIRCLE-20" data-name="CIRCLE"><path class="cls-1" d="M1287.81,1683.32a7.52,7.52,0,1,1-7.52,7.52,7.52,7.52,0,0,1,7.52-7.52Z"/></g><g id="CIRCLE-21" data-name="CIRCLE"><path class="cls-1" d="M1685.65,1530a7.52,7.52,0,1,1-7.52,7.52,7.52,7.52,0,0,1,7.52-7.52Z"/></g><g id="CIRCLE-22" data-name="CIRCLE"><path class="cls-1" d="M1827.42,1418.67a7.52,7.52,0,1,1-7.52,7.52,7.52,7.52,0,0,1,7.52-7.52Z"/></g><g id="CIRCLE-23" data-name="CIRCLE"><path class="cls-1" d="M1877.43,1546.36a7.52,7.52,0,1,1-7.52,7.52,7.52,7.52,0,0,1,7.52-7.52Z"/></g><g id="CIRCLE-24" data-name="CIRCLE"><path class="cls-1" d="M1795.33,1771.72a7.52,7.52,0,1,1-7.52,7.52,7.52,7.52,0,0,1,7.52-7.52Z"/></g><g id="CIRCLE-25" data-name="CIRCLE"><path class="cls-1" d="M1871.34,1923.71a7.52,7.52,0,1,1-7.52,7.52,7.52,7.52,0,0,1,7.52-7.52Z"/></g><g id="CIRCLE-26" data-name="CIRCLE"><path class="cls-1" d="M2063.54,1324.42a7.52,7.52,0,1,1-7.52,7.52,7.52,7.52,0,0,1,7.52-7.52Z"/></g><g id="CIRCLE-27" data-name="CIRCLE"><path class="cls-1" d="M1980.83,1104a7.52,7.52,0,1,1-7.52,7.52,7.52,7.52,0,0,1,7.52-7.52Z"/></g><g id="CIRCLE-28" data-name="CIRCLE"><path class="cls-1" d="M1306,1238.66a7.52,7.52,0,1,1-7.52,7.52,7.52,7.52,0,0,1,7.52-7.52Z"/></g><g id="CIRCLE-29" data-name="CIRCLE"><path class="cls-1" d="M1235.4,1482.86a7.52,7.52,0,1,1-7.52,7.52,7.52,7.52,0,0,1,7.52-7.52Z"/></g><g id="CIRCLE-30" data-name="CIRCLE"><path class="cls-1" d="M1251.84,1677.93a7.52,7.52,0,1,1-7.52,7.52,7.52,7.52,0,0,1,7.52-7.52Z"/></g><g id="CIRCLE-31" data-name="CIRCLE"><path class="cls-1" d="M1188.64,1143.12a7.52,7.52,0,1,1-7.52,7.52,7.52,7.52,0,0,1,7.52-7.52Z"/></g><g id="CIRCLE-32" data-name="CIRCLE"><path class="cls-1" d="M1104.3,1243.49a7.52,7.52,0,1,1-7.52,7.52,7.52,7.52,0,0,1,7.52-7.52Z"/></g><g id="CIRCLE-33" data-name="CIRCLE"><path class="cls-1" d="M1631.07,1914.87a7.52,7.52,0,1,1-7.52,7.52,7.52,7.52,0,0,1,7.52-7.52Z"/></g><g id="LWPOLYLINE-12" data-name="LWPOLYLINE"><polyline class="cls-1" points="1685.65 1537.49 1685.65 955 1759.19 881.47 1759.19 820.54 1225.76 287.11 1225.76 116.69"/></g><g id="LWPOLYLINE-13" data-name="LWPOLYLINE"><polyline class="cls-1" points="1827.42 1426.19 1779.05 1377.82 1779.05 1176.08 1800.84 1154.3 1800.84 998.24 1837.38 961.7 1837.38 943.44 1872.16 908.65 1872.16 802.45 1660.45 590.74 1630.9 590.74 1604.77 564.61"/></g><g id="CIRCLE-34" data-name="CIRCLE"><path class="cls-1" d="M1932.53,1571.72a7.52,7.52,0,1,1-7.52,7.52,7.52,7.52,0,0,1,7.52-7.52Z"/></g><g id="LWPOLYLINE-14" data-name="LWPOLYLINE"><polyline class="cls-1" points="2063.54 1331.94 2063.54 1275.55 1980.39 1192.39 1980.39 1111.53"/></g><g id="LWPOLYLINE-15" data-name="LWPOLYLINE"><polyline class="cls-1" points="2218.76 1366.16 2184.66 1366.16 2143.85 1325.34 2143.85 1211.38 2095.43 1162.95 2095.43 1108.39 2064.52 1077.49 2064.52 812.75 1831.1 579.33"/></g><g id="LWPOLYLINE-16" data-name="LWPOLYLINE"><polyline class="cls-1" points="2216.94 963.97 2191.66 989.25 2191.66 1167.5 2227.45 1203.29"/></g><g id="LWPOLYLINE-17" data-name="LWPOLYLINE"><polyline class="cls-1" points="1877.43 1553.88 1877.43 1657.15 1796.11 1738.48 1795.33 1779.24"/></g><g id="LWPOLYLINE-18" data-name="LWPOLYLINE"><polyline class="cls-1" points="1631.07 1922.39 1671.71 1881.75 1797.19 1881.75 1901.68 1777.26 1901.68 1675.29 1996.1 1580.88 2212.72 1580.88"/></g><g id="LWPOLYLINE-19" data-name="LWPOLYLINE"><polyline class="cls-1" points="1871.34 1931.23 1871.34 1884.19 1953.39 1802.15 1953.39 1746.48 1969.05 1730.82 2206.13 1730.82"/></g><g id="LWPOLYLINE-20" data-name="LWPOLYLINE"><polyline class="cls-1" points="1522.82 1175.78 1510.78 1163.73 1510.78 998.47 1405.74 893.43 1405.74 846.05 1377.34 817.64 1377.34 638.44 1310.27 571.37 1289.67 571.37 1276.95 584.09 1276.95 606.38"/></g><g id="LWPOLYLINE-21" data-name="LWPOLYLINE"><polyline class="cls-1" points="1493.79 1472.87 1493.79 1399.1 1453.87 1359.17 1453.87 1031.2 1336.95 914.29 1336.95 618.66"/></g><g id="LWPOLYLINE-22" data-name="LWPOLYLINE"><polyline class="cls-1" points="1457.6 1649.59 1421.55 1613.53 1421.55 1580.55 1431.63 1570.47 1431.63 1421.16 1392.57 1382.09 1392.57 1056.82 1259.9 924.15 1259.9 648.58 1285.72 622.75 1310.53 622.75"/></g><g id="LWPOLYLINE-23" data-name="LWPOLYLINE"><polyline class="cls-1" points="1374.74 1683.54 1351.78 1660.58 1351.78 1080.3 1217.82 946.35 1217.82 838.06 1190.98 811.23 1190.98 457.14"/></g><g id="LWPOLYLINE-24" data-name="LWPOLYLINE"><polyline class="cls-1" points="1188.64 1150.64 1282.65 1244.65 1306.03 1246.18"/></g><g id="LWPOLYLINE-25" data-name="LWPOLYLINE"><polyline class="cls-1" points="1251.84 1685.45 1251.84 1630.29 1228.88 1607.32 1228.88 1584.41 1246.69 1566.6 1246.69 1502.36 1235.4 1490.38"/></g><g id="LWPOLYLINE-26" data-name="LWPOLYLINE"><polyline class="cls-1" points="1287.81 1690.84 1266.82 1669.84 1266.82 1621.8 1276.35 1612.27 1276.35 1442.47 1104.3 1270.42 1104.3 1251.02"/></g><g id="CIRCLE-35" data-name="CIRCLE"><path class="cls-1" d="M1035.23,873.94a7.52,7.52,0,1,1-7.52,7.52,7.52,7.52,0,0,1,7.52-7.52Z"/></g><g id="CIRCLE-36" data-name="CIRCLE"><path class="cls-1" d="M796.23,632.94a7.52,7.52,0,1,1-7.52,7.52,7.52,7.52,0,0,1,7.52-7.52Z"/></g><g id="CIRCLE-37" data-name="CIRCLE"><path class="cls-1" d="M296.71,543.64a7.52,7.52,0,1,1-7.52,7.52,7.52,7.52,0,0,1,7.52-7.52Z"/></g><g id="CIRCLE-38" data-name="CIRCLE"><path class="cls-1" d="M661.42,807.87a7.52,7.52,0,1,1-7.52,7.52,7.52,7.52,0,0,1,7.52-7.52Z"/></g><g id="LWPOLYLINE-27" data-name="LWPOLYLINE"><polyline class="cls-1" points="654.52 94.5 637.87 111.14 637.87 150.49 627.84 160.52 627.84 177.82 661.13 211.11 661.42 815.39"/></g><g id="LWPOLYLINE-28" data-name="LWPOLYLINE"><polyline class="cls-1" points="571.62 170.24 614.12 212.74 614.12 979.01"/></g><g id="LWPOLYLINE-29" data-name="LWPOLYLINE"><polyline class="cls-1" points="466.43 358.98 466.43 406.82 502.92 443.31 502.92 636.58 446.58 692.91 446.58 944.56 1004.29 1502.27 1004.29 1730.02 977.59 1756.72"/></g><g id="LWPOLYLINE-30" data-name="LWPOLYLINE"><polyline class="cls-1" points="296.71 551.16 296.71 431.22 278.23 412.75 261.59 412.75 188.89 340.05 112.93 340.05"/></g><g id="LWPOLYLINE-31" data-name="LWPOLYLINE"><polyline class="cls-1" points="796.23 640.47 808.28 652.51 808.28 817.77 848.87 858.37 848.87 889.82 879.48 920.42 879.48 966.71 930.83 1018.06 930.83 1148.84 1081.3 1148.84 1165.11 1065.04 1092.6 992.53 1092.6 881.47 1092.6 377.44 1144.91 325.12 1144.91 275.67 1200.87 219.71"/></g><g id="LWPOLYLINE-32" data-name="LWPOLYLINE"><polyline class="cls-1" points="861.45 166.66 897.51 202.71 897.51 235.69 887.42 245.77 887.42 395.09 926.49 434.15 926.49 759.42 969.14 802.07 969.14 977.69 984.03 992.58 984.03 1084.91 1045.8 1084.91 1073.96 1056.75 1027.52 1010.31 1027.52 949.06 984.07 905.61 984.07 881.47 984.07 795.66 940.72 752.31 940.72 179.4 915.75 154.43 883.18 154.43 861.17 132.42"/></g><g id="LWPOLYLINE-33" data-name="LWPOLYLINE"><polyline class="cls-1" points="986.1 164.97 986.1 183.75 1008.89 206.54 1008.89 225.02 978.31 255.6 978.31 730.25 1035.23 787.17 1035.23 881.47"/></g><g id="CIRCLE-39" data-name="CIRCLE"><path class="cls-1" d="M1277,598.86a7.52,7.52,0,1,1-7.52,7.52,7.52,7.52,0,0,1,7.52-7.52Z"/></g><g id="CIRCLE-40" data-name="CIRCLE"><path class="cls-1" d="M1310.53,615.23a7.52,7.52,0,1,1-7.52,7.52,7.52,7.52,0,0,1,7.52-7.52Z"/></g><g id="CIRCLE-41" data-name="CIRCLE"><path class="cls-1" d="M1336.95,611.14a7.52,7.52,0,1,1-7.52,7.52,7.52,7.52,0,0,1,7.52-7.52Z"/></g><g id="CIRCLE-42" data-name="CIRCLE"><path class="cls-1" d="M1567.71,471.48a7.52,7.52,0,1,1-7.52,7.52,7.52,7.52,0,0,1,7.52-7.52Z"/></g><g id="CIRCLE-43" data-name="CIRCLE"><path class="cls-1" d="M1604.77,557.08a7.52,7.52,0,1,1-7.52,7.52,7.52,7.52,0,0,1,7.52-7.52Z"/></g><g id="CIRCLE-44" data-name="CIRCLE"><path class="cls-1" d="M1739.33,485.84a7.52,7.52,0,1,1-7.52,7.52,7.52,7.52,0,0,1,7.52-7.52Z"/></g><g id="CIRCLE-45" data-name="CIRCLE"><path class="cls-1" d="M1831.1,571.8a7.52,7.52,0,1,1-7.52,7.52,7.52,7.52,0,0,1,7.52-7.52Z"/></g><g id="CIRCLE-46" data-name="CIRCLE"><path class="cls-1" d="M1837.46,480.67a7.52,7.52,0,1,1-7.52,7.52,7.52,7.52,0,0,1,7.52-7.52Z"/></g><g id="LWPOLYLINE-34" data-name="LWPOLYLINE"><line class="cls-1" x1="1952" y1="414.66" x2="2145.85" y2="608.52"/></g><g id="LWPOLYLINE-35" data-name="LWPOLYLINE"><polyline class="cls-1" points="1381.1 207.1 1381.1 248.47 1516.16 383.53 1828.44 383.53 2195.44 750.53"/></g><g id="LWPOLYLINE-36" data-name="LWPOLYLINE"><polyline class="cls-1" points="1739.33 493.36 1760.95 514.99 1879.03 514.99 2187.53 823.5"/></g><g id="LWPOLYLINE-37" data-name="LWPOLYLINE"><polyline class="cls-1" points="1837.46 488.19 1806.33 457.07 1587.44 457.07 1567.71 479"/></g><g id="LWPOLYLINE-38" data-name="LWPOLYLINE"><polyline class="cls-1" points="1351.01 122.93 1336.13 137.81 1336.13 297.94 1564.65 526.47 1720.52 526.47 2013.18 819.12 2013.18 1025.45 1932.53 1106.1 1932.53 1579.24"/></g><g id="LWPOLYLINE-39" data-name="LWPOLYLINE"><polyline class="cls-1" points="1323.03 450.21 1323.03 472.26 1492.93 642.15 1492.93 810.92 1483.05 820.8 1483.05 868.75 1630.91 1016.61 1630.91 1517.19 1593.81 1554.29 1593.81 1623.25 1578.99 1638.07"/></g><g id="CIRCLE-47" data-name="CIRCLE"><path class="cls-1" d="M614.11,971.48a7.52,7.52,0,1,1-7.52,7.52,7.52,7.52,0,0,1,7.52-7.52Z"/></g><g id="CIRCLE-48" data-name="CIRCLE"><path class="cls-1" d="M571.62,162.72a7.52,7.52,0,1,1-7.52,7.52,7.52,7.52,0,0,1,7.52-7.52Z"/></g><g id="CIRCLE-49" data-name="CIRCLE"><path class="cls-1" d="M654.52,87A7.52,7.52,0,1,1,647,94.5,7.52,7.52,0,0,1,654.52,87Z"/></g><g id="CIRCLE-50" data-name="CIRCLE"><path class="cls-1" d="M740.07,170.65a7.52,7.52,0,1,1-7.52,7.52,7.52,7.52,0,0,1,7.52-7.52Z"/></g><g id="CIRCLE-51" data-name="CIRCLE"><path class="cls-1" d="M861.45,159.13a7.52,7.52,0,1,1-7.52,7.52,7.52,7.52,0,0,1,7.52-7.52Z"/></g><g id="CIRCLE-52" data-name="CIRCLE"><path class="cls-1" d="M861.17,124.9a7.52,7.52,0,1,1-7.52,7.52,7.52,7.52,0,0,1,7.52-7.52Z"/></g><g id="CIRCLE-53" data-name="CIRCLE"><path class="cls-1" d="M986.1,157.45a7.52,7.52,0,1,1-7.52,7.52,7.52,7.52,0,0,1,7.52-7.52Z"/></g><g id="CIRCLE-54" data-name="CIRCLE"><path class="cls-1" d="M466.43,351.45a7.52,7.52,0,1,1-7.52,7.52,7.52,7.52,0,0,1,7.52-7.52Z"/></g><g id="CIRCLE-55" data-name="CIRCLE"><path class="cls-1" d="M130.1,410.55a7.52,7.52,0,1,1-7.52,7.52,7.52,7.52,0,0,1,7.52-7.52Z"/></g><g id="CIRCLE-56" data-name="CIRCLE"><path class="cls-1" d="M140.92,851.92a7.52,7.52,0,1,1-7.52,7.52,7.52,7.52,0,0,1,7.52-7.52Z"/></g><g id="CIRCLE-57" data-name="CIRCLE"><path class="cls-1" d="M1200.87,212.19a7.52,7.52,0,1,1-7.52,7.52,7.52,7.52,0,0,1,7.52-7.52Z"/></g><g id="CIRCLE-58" data-name="CIRCLE"><path class="cls-1" d="M1225.76,109.17a7.52,7.52,0,1,1-7.52,7.52,7.52,7.52,0,0,1,7.52-7.52Z"/></g><g id="CIRCLE-59" data-name="CIRCLE"><path class="cls-1" d="M1191,449.62a7.52,7.52,0,1,1-7.52,7.52,7.52,7.52,0,0,1,7.52-7.52Z"/></g><g id="CIRCLE-60" data-name="CIRCLE"><path class="cls-1" d="M1323,442.68a7.52,7.52,0,1,1-7.52,7.52,7.52,7.52,0,0,1,7.52-7.52Z"/></g><g id="CIRCLE-61" data-name="CIRCLE"><path class="cls-1" d="M1381.1,199.58a7.52,7.52,0,1,1-7.52,7.52,7.52,7.52,0,0,1,7.52-7.52Z"/></g><g id="CIRCLE-62" data-name="CIRCLE"><path class="cls-1" d="M1351,115.41a7.52,7.52,0,1,1-7.52,7.52,7.52,7.52,0,0,1,7.52-7.52Z"/></g><g id="CIRCLE-63" data-name="CIRCLE"><path class="cls-1" d="M1952,407.14a7.52,7.52,0,1,1-7.52,7.52,7.52,7.52,0,0,1,7.52-7.52Z"/></g><g id="LWPOLYLINE-40" data-name="LWPOLYLINE"><polyline class="cls-1" points="140.92 859.44 140.92 627.41 94.71 581.2"/></g><g id="CIRCLE-64" data-name="CIRCLE"><path class="cls-1" d="M777.47,118.41a7.52,7.52,0,1,1-7.52,7.52,7.52,7.52,0,0,1,7.52-7.52Z"/></g><g id="CIRCLE-65" data-name="CIRCLE"><path class="cls-1" d="M787.8,207.8a7.52,7.52,0,1,1-7.52,7.52,7.52,7.52,0,0,1,7.52-7.52Z"/></g><g id="CIRCLE-66" data-name="CIRCLE"><path class="cls-1" d="M740.62,334.91a7.52,7.52,0,1,1-7.52,7.52,7.52,7.52,0,0,1,7.52-7.52Z"/></g><g id="CIRCLE-67" data-name="CIRCLE"><path class="cls-1" d="M784.78,507.43a7.52,7.52,0,1,1-7.52,7.52,7.52,7.52,0,0,1,7.52-7.52Z"/></g><g id="CIRCLE-68" data-name="CIRCLE"><path class="cls-1" d="M795.67,462.46a7.52,7.52,0,1,1-7.52,7.52,7.52,7.52,0,0,1,7.52-7.52Z"/></g><g id="CIRCLE-69" data-name="CIRCLE"><path class="cls-1" d="M765.52,645.79a7.52,7.52,0,1,1-7.52,7.52,7.52,7.52,0,0,1,7.52-7.52Z"/></g><g id="CIRCLE-70" data-name="CIRCLE"><path class="cls-1" d="M904.92,169.24a7.52,7.52,0,1,1-7.52,7.52,7.52,7.52,0,0,1,7.52-7.52Z"/></g><g id="CIRCLE-71" data-name="CIRCLE"><path class="cls-1" d="M1028.72,169.51a7.52,7.52,0,1,1-7.52,7.52,7.52,7.52,0,0,1,7.52-7.52Z"/></g><g id="CIRCLE-72" data-name="CIRCLE"><path class="cls-1" d="M633.41,271.23a7.52,7.52,0,1,1-7.52,7.52,7.52,7.52,0,0,1,7.52-7.52Z"/></g><g id="CIRCLE-73" data-name="CIRCLE"><path class="cls-1" d="M491.63,382.53a7.52,7.52,0,1,1-7.52,7.52,7.52,7.52,0,0,1,7.52-7.52Z"/></g><g id="CIRCLE-74" data-name="CIRCLE"><path class="cls-1" d="M441.62,254.84a7.52,7.52,0,1,1-7.52,7.52,7.52,7.52,0,0,1,7.52-7.52Z"/></g><g id="CIRCLE-75" data-name="CIRCLE"><path class="cls-1" d="M306.17,257.55a7.52,7.52,0,1,1-7.52,7.52,7.52,7.52,0,0,1,7.52-7.52Z"/></g><g id="CIRCLE-76" data-name="CIRCLE"><path class="cls-1" d="M523.73,29.48A7.52,7.52,0,1,1,516.21,37a7.52,7.52,0,0,1,7.52-7.52Z"/></g><g id="CIRCLE-77" data-name="CIRCLE"><path class="cls-1" d="M178,849.71a7.52,7.52,0,1,1-7.52,7.52,7.52,7.52,0,0,1,7.52-7.52Z"/></g><g id="CIRCLE-78" data-name="CIRCLE"><path class="cls-1" d="M1013,724.68a7.52,7.52,0,1,1-7.52,7.52,7.52,7.52,0,0,1,7.52-7.52Z"/></g><g id="CIRCLE-79" data-name="CIRCLE"><path class="cls-1" d="M386.52,229.48A7.52,7.52,0,1,1,379,237a7.52,7.52,0,0,1,7.52-7.52Z"/></g><g id="CIRCLE-80" data-name="CIRCLE"><path class="cls-1" d="M1209.23,776.68a7.52,7.52,0,1,1-7.52,7.52,7.52,7.52,0,0,1,7.52-7.52Z"/></g><g id="CIRCLE-81" data-name="CIRCLE"><path class="cls-1" d="M1181.1,161a7.52,7.52,0,1,1-7.52,7.52,7.52,7.52,0,0,1,7.52-7.52Z"/></g><g id="CIRCLE-82" data-name="CIRCLE"><path class="cls-1" d="M1275.19,119.4a7.52,7.52,0,1,1-7.52,7.52,7.52,7.52,0,0,1,7.52-7.52Z"/></g><g id="CIRCLE-83" data-name="CIRCLE"><path class="cls-1" d="M1245.19,354.1a7.52,7.52,0,1,1-7.52,7.52,7.52,7.52,0,0,1,7.52-7.52Z"/></g><g id="CIRCLE-84" data-name="CIRCLE"><path class="cls-1" d="M1293.6,370.82a7.52,7.52,0,1,1-7.52,7.52,7.52,7.52,0,0,1,7.52-7.52Z"/></g><g id="CIRCLE-85" data-name="CIRCLE"><path class="cls-1" d="M1229.85,462.93a7.52,7.52,0,1,1-7.52,7.52,7.52,7.52,0,0,1,7.52-7.52Z"/></g><g id="CIRCLE-86" data-name="CIRCLE"><path class="cls-1" d="M1438.2,370.66a7.52,7.52,0,1,1-7.52,7.52,7.52,7.52,0,0,1,7.52-7.52Z"/></g><g id="CIRCLE-87" data-name="CIRCLE"><path class="cls-1" d="M1384.52,111.64a7.52,7.52,0,1,1-7.52,7.52,7.52,7.52,0,0,1,7.52-7.52Z"/></g><g id="CIRCLE-88" data-name="CIRCLE"><path class="cls-1" d="M1430.71,112.56a7.52,7.52,0,1,1-7.52,7.52,7.52,7.52,0,0,1,7.52-7.52Z"/></g><g id="CIRCLE-89" data-name="CIRCLE"><path class="cls-1" d="M1467.64,108.11a7.52,7.52,0,1,1-7.52,7.52,7.52,7.52,0,0,1,7.52-7.52Z"/></g><g id="CIRCLE-90" data-name="CIRCLE"><path class="cls-1" d="M1424.55,238.47A7.52,7.52,0,1,1,1417,246a7.52,7.52,0,0,1,7.52-7.52Z"/></g><g id="CIRCLE-91" data-name="CIRCLE"><path class="cls-1" d="M1547.13,238.12a7.52,7.52,0,1,1-7.52,7.52,7.52,7.52,0,0,1,7.52-7.52Z"/></g><g id="CIRCLE-92" data-name="CIRCLE"><path class="cls-1" d="M1903,366.74a7.52,7.52,0,1,1-7.52,7.52,7.52,7.52,0,0,1,7.52-7.52Z"/></g><g id="CIRCLE-93" data-name="CIRCLE"><path class="cls-1" d="M1845.18,187.82a7.52,7.52,0,1,1-7.52,7.52,7.52,7.52,0,0,1,7.52-7.52Z"/></g><g id="CIRCLE-94" data-name="CIRCLE"><path class="cls-1" d="M1806.42,195.78a7.52,7.52,0,1,1-7.52,7.52,7.52,7.52,0,0,1,7.52-7.52Z"/></g><g id="CIRCLE-95" data-name="CIRCLE"><path class="cls-1" d="M1712,198.9a7.52,7.52,0,1,1-7.52,7.52,7.52,7.52,0,0,1,7.52-7.52Z"/></g><g id="CIRCLE-96" data-name="CIRCLE"><path class="cls-1" d="M1671.37,199.85a7.52,7.52,0,1,1-7.52,7.52,7.52,7.52,0,0,1,7.52-7.52Z"/></g><g id="CIRCLE-97" data-name="CIRCLE"><path class="cls-1" d="M939.67,941.82a7.52,7.52,0,1,1-7.52,7.52,7.52,7.52,0,0,1,7.52-7.52Z"/></g><g id="CIRCLE-98" data-name="CIRCLE"><path class="cls-1" d="M1043.87,1681.8a7.52,7.52,0,1,1-7.52,7.52,7.52,7.52,0,0,1,7.52-7.52Z"/></g><g id="CIRCLE-99" data-name="CIRCLE"><path class="cls-1" d="M996,1358.51a7.52,7.52,0,1,1-7.52,7.52,7.52,7.52,0,0,1,7.52-7.52Z"/></g><g id="CIRCLE-100" data-name="CIRCLE"><path class="cls-1" d="M938,1601.62a7.52,7.52,0,1,1-7.52,7.52,7.52,7.52,0,0,1,7.52-7.52Z"/></g><g id="CIRCLE-101" data-name="CIRCLE"><path class="cls-1" d="M888.35,1688.64a7.52,7.52,0,1,1-7.52,7.52,7.52,7.52,0,0,1,7.52-7.52Z"/></g><g id="CIRCLE-102" data-name="CIRCLE"><path class="cls-1" d="M751.35,1329.72a7.52,7.52,0,1,1-7.52,7.52,7.52,7.52,0,0,1,7.52-7.52Z"/></g><g id="CIRCLE-103" data-name="CIRCLE"><path class="cls-1" d="M771.92,1563.08a7.52,7.52,0,1,1-7.52,7.52,7.52,7.52,0,0,1,7.52-7.52Z"/></g><g id="CIRCLE-104" data-name="CIRCLE"><path class="cls-1" d="M481.6,1320.53a7.52,7.52,0,1,1-7.52,7.52,7.52,7.52,0,0,1,7.52-7.52Z"/></g><g id="CIRCLE-105" data-name="CIRCLE"><path class="cls-1" d="M468.14,1275.65a7.52,7.52,0,1,1-7.52,7.52,7.52,7.52,0,0,1,7.52-7.52Z"/></g><g id="CIRCLE-106" data-name="CIRCLE"><path class="cls-1" d="M367.06,1394.06a7.52,7.52,0,1,1-7.52,7.52,7.52,7.52,0,0,1,7.52-7.52Z"/></g><g id="CIRCLE-107" data-name="CIRCLE"><path class="cls-1" d="M516.44,1652.85a7.52,7.52,0,1,1-7.52,7.52,7.52,7.52,0,0,1,7.52-7.52Z"/></g><g id="CIRCLE-108" data-name="CIRCLE"><path class="cls-1" d="M607.1,1602.3a7.52,7.52,0,1,1-7.52,7.52,7.52,7.52,0,0,1,7.52-7.52Z"/></g><g id="LWPOLYLINE-41" data-name="LWPOLYLINE"><polyline class="cls-1" points="771.92 1570.6 771.92 1646.2 696.17 1721.96 634.55 1721.96 610.11 1697.52 495.67 1697.52 485.12 1686.97 463.46 1686.97 445.92 1704.51 445.92 1756.31 424.15 1778.07 200.34 1778.07 185.19 1762.92 81.53 1762.92"/></g><g id="LWPOLYLINE-42" data-name="LWPOLYLINE"><polyline class="cls-1" points="516.44 1660.38 445.99 1660.38 407.27 1699.09 210.41 1699.09 85.87 1574.56"/></g><g id="LWPOLYLINE-43" data-name="LWPOLYLINE"><polyline class="cls-1" points="607.1 1609.82 557.89 1609.82 523 1574.94 230.24 1574.94 65.61 1410.32"/></g><g id="LWPOLYLINE-44" data-name="LWPOLYLINE"><polyline class="cls-1" points="888.35 1696.16 848.34 1656.15 848.34 1630.15 809.22 1591.04 809.22 1555.99 754.08 1500.85 341.13 1500.85 112.93 1272.64"/></g><g id="LWPOLYLINE-45" data-name="LWPOLYLINE"><line class="cls-1" x1="367.06" y1="1401.58" x2="173.2" y2="1207.73"/></g><g id="LWPOLYLINE-46" data-name="LWPOLYLINE"><polyline class="cls-1" points="937.96 1609.14 937.96 1567.77 802.9 1432.71 490.61 1432.71 123.61 1065.71"/></g><g id="LWPOLYLINE-47" data-name="LWPOLYLINE"><polyline class="cls-1" points="468.14 1283.17 439.58 1283.17 156.57 1000.17"/></g><g id="LWPOLYLINE-48" data-name="LWPOLYLINE"><polyline class="cls-1" points="481.6 1328.05 512.72 1359.17 731.61 1359.17 751.35 1337.24"/></g><g id="LWPOLYLINE-49" data-name="LWPOLYLINE"><polyline class="cls-1" points="996.02 1366.04 996.02 1343.99 826.13 1174.09 826.13 1005.33 836.01 995.44 836.01 947.49 808.85 920.34 731.25 920.34 670.78 859.87 670.78 834.45 678.04 827.19 678.04 162.63 690.84 149.83 709.31 149.83 719.34 159.86 743.54 159.86 777.47 125.93"/></g><g id="CIRCLE-109" data-name="CIRCLE"><path class="cls-1" d="M1747.43,1638.48a7.52,7.52,0,1,1-7.52,7.52,7.52,7.52,0,0,1,7.52-7.52Z"/></g><g id="CIRCLE-110" data-name="CIRCLE"><path class="cls-1" d="M1541.58,1682.79a7.52,7.52,0,1,1-7.52,7.52,7.52,7.52,0,0,1,7.52-7.52Z"/></g><g id="CIRCLE-111" data-name="CIRCLE"><path class="cls-1" d="M1546,1465.73a7.52,7.52,0,1,1-7.52,7.52,7.52,7.52,0,0,1,7.52-7.52Z"/></g><g id="CIRCLE-112" data-name="CIRCLE"><path class="cls-1" d="M1534.28,1293.76a7.52,7.52,0,1,1-7.52,7.52,7.52,7.52,0,0,1,7.52-7.52Z"/></g><g id="CIRCLE-113" data-name="CIRCLE"><path class="cls-1" d="M1553.53,1155.4a7.52,7.52,0,1,1-7.52,7.52,7.52,7.52,0,0,1,7.52-7.52Z"/></g><g id="CIRCLE-114" data-name="CIRCLE"><path class="cls-1" d="M1447.51,1595.48A7.52,7.52,0,1,1,1440,1603a7.52,7.52,0,0,1,7.52-7.52Z"/></g><g id="CIRCLE-115" data-name="CIRCLE"><path class="cls-1" d="M1410.77,1680.79a7.52,7.52,0,1,1-7.52,7.52,7.52,7.52,0,0,1,7.52-7.52Z"/></g><g id="CIRCLE-116" data-name="CIRCLE"><path class="cls-1" d="M1332.68,1678a7.52,7.52,0,1,1-7.52,7.52,7.52,7.52,0,0,1,7.52-7.52Z"/></g><g id="CIRCLE-117" data-name="CIRCLE"><path class="cls-1" d="M1310.53,1511a7.52,7.52,0,1,1-7.52,7.52,7.52,7.52,0,0,1,7.52-7.52Z"/></g><g id="CIRCLE-118" data-name="CIRCLE"><path class="cls-1" d="M1852.63,1449.74a7.52,7.52,0,1,1-7.52,7.52,7.52,7.52,0,0,1,7.52-7.52Z"/></g><g id="CIRCLE-119" data-name="CIRCLE"><path class="cls-1" d="M1982.71,1521.54a7.52,7.52,0,1,1-7.52,7.52,7.52,7.52,0,0,1,7.52-7.52Z"/></g><g id="CIRCLE-120" data-name="CIRCLE"><path class="cls-1" d="M2012.89,1543.65a7.52,7.52,0,1,1-7.52,7.52,7.52,7.52,0,0,1,7.52-7.52Z"/></g><g id="CIRCLE-121" data-name="CIRCLE"><path class="cls-1" d="M1986.22,1220a7.52,7.52,0,1,1-7.52,7.52,7.52,7.52,0,0,1,7.52-7.52Z"/></g><g id="CIRCLE-122" data-name="CIRCLE"><path class="cls-1" d="M1822.36,1752.72a7.52,7.52,0,1,1-7.52,7.52,7.52,7.52,0,0,1,7.52-7.52Z"/></g><g id="CIRCLE-123" data-name="CIRCLE"><path class="cls-1" d="M1892.29,1893.53a7.52,7.52,0,1,1-7.52,7.52,7.52,7.52,0,0,1,7.52-7.52Z"/></g><g id="CIRCLE-124" data-name="CIRCLE"><path class="cls-1" d="M2010.72,1077a7.52,7.52,0,1,1-7.52,7.52,7.52,7.52,0,0,1,7.52-7.52Z"/></g><g id="CIRCLE-125" data-name="CIRCLE"><path class="cls-1" d="M2092.74,947.68a7.52,7.52,0,1,1-7.52,7.52,7.52,7.52,0,0,1,7.52-7.52Z"/></g><g id="CIRCLE-126" data-name="CIRCLE"><path class="cls-1" d="M1306,1177.48a7.52,7.52,0,1,1-7.52,7.52,7.52,7.52,0,0,1,7.52-7.52Z"/></g><g id="CIRCLE-127" data-name="CIRCLE"><path class="cls-1" d="M1259,1379.94a7.52,7.52,0,1,1-7.52,7.52,7.52,7.52,0,0,1,7.52-7.52Z"/></g><g id="CIRCLE-128" data-name="CIRCLE"><path class="cls-1" d="M1122.66,1373.79a7.52,7.52,0,1,1-7.52,7.52,7.52,7.52,0,0,1,7.52-7.52Z"/></g><g id="CIRCLE-129" data-name="CIRCLE"><path class="cls-1" d="M1153.29,1245.51a7.52,7.52,0,1,1-7.52,7.52,7.52,7.52,0,0,1,7.52-7.52Z"/></g><g id="CIRCLE-130" data-name="CIRCLE"><path class="cls-1" d="M1153.83,1132.34a7.52,7.52,0,1,1-7.52,7.52,7.52,7.52,0,0,1,7.52-7.52Z"/></g><g id="CIRCLE-131" data-name="CIRCLE"><path class="cls-1" d="M1074.17,1171.61a7.52,7.52,0,1,1-7.52,7.52,7.52,7.52,0,0,1,7.52-7.52Z"/></g><g id="CIRCLE-132" data-name="CIRCLE"><path class="cls-1" d="M1671.89,1915.76a7.52,7.52,0,1,1-7.52,7.52,7.52,7.52,0,0,1,7.52-7.52Z"/></g><g id="CIRCLE-133" data-name="CIRCLE"><path class="cls-1" d="M1666.79,1835.61a7.52,7.52,0,1,1-7.52,7.52,7.52,7.52,0,0,1,7.52-7.52Z"/></g><g id="LWPOLYLINE-50" data-name="LWPOLYLINE"><polyline class="cls-1" points="1747.43 1646 1704.94 1603.51 1704.94 1003.58 1827.05 881.47 1827.05 859.14 1275.19 307.27 1275.19 126.92"/></g><g id="LWPOLYLINE-51" data-name="LWPOLYLINE"><polyline class="cls-1" points="1986.22 1227.49 1956.78 1256.93 1956.78 1503.27 1982.32 1528.82"/></g><g id="LWPOLYLINE-52" data-name="LWPOLYLINE"><polyline class="cls-1" points="2012.89 1551.17 2035.89 1528.17 2183.19 1528.17 2206.13 1505.24"/></g><g id="LWPOLYLINE-53" data-name="LWPOLYLINE"><polyline class="cls-1" points="2010.72 1084.53 2039.94 1113.74 2039.94 1203.95 2083.96 1247.96 2083.96 1394.79 2143.45 1454.28 2206.13 1454.28"/></g><g id="LWPOLYLINE-54" data-name="LWPOLYLINE"><polyline class="cls-1" points="2092.74 955.2 2114.02 955.2 2151 992.17 2151 1263.78 2223.27 1336.05"/></g><g id="LWPOLYLINE-55" data-name="LWPOLYLINE"><polyline class="cls-1" points="1822.36 1760.24 1822.36 1795.48 1791.42 1826.42 1682.56 1826.42 1666.79 1843.13"/></g><g id="LWPOLYLINE-56" data-name="LWPOLYLINE"><polyline class="cls-1" points="1671.89 1923.28 1701.04 1894.13 1803.62 1894.13 1913.73 1784.03 1913.73 1684.76 1983.01 1615.48 2206.13 1615.48"/></g><g id="LWPOLYLINE-57" data-name="LWPOLYLINE"><polyline class="cls-1" points="1892.29 1901.05 1892.29 1879.18 1979.82 1791.66 2057.89 1791.66 2081.41 1768.14 2206.13 1768.14"/></g><g id="LWPOLYLINE-58" data-name="LWPOLYLINE"><polyline class="cls-1" points="1553.53 1162.93 1553.53 1284.98 1534.28 1301.29"/></g><g id="LWPOLYLINE-59" data-name="LWPOLYLINE"><polyline class="cls-1" points="1306.03 1185.01 1268.82 1185.01 1208.24 1124.43 1169.46 1124.43 1153.83 1139.86"/></g><g id="LWPOLYLINE-60" data-name="LWPOLYLINE"><polyline class="cls-1" points="1310.53 1518.55 1310.53 1495.88 1300.51 1485.86 1300.51 1397.88 1153.29 1253.03"/></g><g id="LWPOLYLINE-61" data-name="LWPOLYLINE"><polyline class="cls-1" points="1259.02 1387.46 1241.31 1387.46 1123.27 1269.43 1123.27 1227.38 1074.17 1179.13"/></g><g id="LWPOLYLINE-62" data-name="LWPOLYLINE"><polyline class="cls-1" points="1332.68 1685.51 1311.24 1706.95 1186.19 1706.95 1166.14 1686.9 1166.14 1424.94 1122.66 1381.31"/></g><g id="CIRCLE-134" data-name="CIRCLE"><path class="cls-1" d="M347.46,540.2a7.52,7.52,0,1,1-7.52,7.52,7.52,7.52,0,0,1,7.52-7.52Z"/></g><g id="CIRCLE-135" data-name="CIRCLE"><path class="cls-1" d="M252.91,667.28a7.52,7.52,0,1,1-7.52,7.52,7.52,7.52,0,0,1,7.52-7.52Z"/></g><g id="LWPOLYLINE-63" data-name="LWPOLYLINE"><polyline class="cls-1" points="491.63 390.06 540 438.43 540 640.16 518.22 661.95 518.22 818 481.67 854.55 481.67 946.78 1043.87 1508.97 1043.87 1689.32"/></g><g id="LWPOLYLINE-64" data-name="LWPOLYLINE"><polyline class="cls-1" points="386.52 237 386.52 710.14 305.88 790.79 305.88 926.42 330.36 950.9 357.87 950.9 659.08 1252.11"/></g><g id="LWPOLYLINE-65" data-name="LWPOLYLINE"><polyline class="cls-1" points="306.17 265.07 283.17 288.07 135.87 288.07 112.93 311.01"/></g><g id="LWPOLYLINE-66" data-name="LWPOLYLINE"><polyline class="cls-1" points="347.46 547.72 323.68 523.93 323.68 382.23 270.86 329.41 112.93 329.41"/></g><g id="LWPOLYLINE-67" data-name="LWPOLYLINE"><polyline class="cls-1" points="252.91 674.8 252.91 620.94 212.18 580.21 212.18 442.32 164.72 394.86 112.93 394.86"/></g><g id="LWPOLYLINE-68" data-name="LWPOLYLINE"><polyline class="cls-1" points="103.95 560.99 152.68 609.72 152.68 833.38 178 857.24"/></g><g id="LWPOLYLINE-69" data-name="LWPOLYLINE"><polyline class="cls-1" points="441.62 262.36 441.62 159.09 522.95 77.76 523.73 37"/></g><g id="LWPOLYLINE-70" data-name="LWPOLYLINE"><polyline class="cls-1" points="740.63 342.43 724.59 358.47 724.59 716.87 780.07 772.35 780.07 835.88 801.78 857.59 801.78 881.47"/></g><g id="LWPOLYLINE-71" data-name="LWPOLYLINE"><polyline class="cls-1" points="765.52 653.32 765.52 531.26 784.78 514.96"/></g><g id="LWPOLYLINE-72" data-name="LWPOLYLINE"><polyline class="cls-1" points="787.8 215.33 806.14 233.66 836.11 233.66 859.88 257.44 859.88 406.47 894.59 441.18 894.59 770.1 939.67 815.18 939.67 949.35"/></g><g id="LWPOLYLINE-73" data-name="LWPOLYLINE"><polyline class="cls-1" points="904.92 176.76 926.99 198.83 926.49 434.15"/></g><g id="LWPOLYLINE-74" data-name="LWPOLYLINE"><polyline class="cls-1" points="1013.03 732.21 993.43 712.61 993.43 268.19 1028.72 232.9 1028.72 177.04"/></g><g id="CIRCLE-136" data-name="CIRCLE"><path class="cls-1" d="M1270.47,545a7.52,7.52,0,1,1-7.52,7.52,7.52,7.52,0,0,1,7.52-7.52Z"/></g><g id="CIRCLE-137" data-name="CIRCLE"><path class="cls-1" d="M1277.29,653.78a7.52,7.52,0,1,1-7.52,7.52,7.52,7.52,0,0,1,7.52-7.52Z"/></g><g id="CIRCLE-138" data-name="CIRCLE"><path class="cls-1" d="M1351.95,670.16a7.52,7.52,0,1,1-7.52,7.52,7.52,7.52,0,0,1,7.52-7.52Z"/></g><g id="CIRCLE-139" data-name="CIRCLE"><path class="cls-1" d="M1470.4,785.87a7.52,7.52,0,1,1-7.52,7.52,7.52,7.52,0,0,1,7.52-7.52Z"/></g><g id="CIRCLE-140" data-name="CIRCLE"><path class="cls-1" d="M1517.59,758.49a7.52,7.52,0,1,1-7.52,7.52,7.52,7.52,0,0,1,7.52-7.52Z"/></g><g id="CIRCLE-141" data-name="CIRCLE"><path class="cls-1" d="M1479,578.86a7.52,7.52,0,1,1-7.52,7.52,7.52,7.52,0,0,1,7.52-7.52Z"/></g><g id="CIRCLE-142" data-name="CIRCLE"><path class="cls-1" d="M1604.75,465.64a7.52,7.52,0,1,1-7.52,7.52,7.52,7.52,0,0,1,7.52-7.52Z"/></g><g id="CIRCLE-143" data-name="CIRCLE"><path class="cls-1" d="M1660,556.61a7.52,7.52,0,1,1-7.52,7.52,7.52,7.52,0,0,1,7.52-7.52Z"/></g><g id="CIRCLE-144" data-name="CIRCLE"><path class="cls-1" d="M1788.66,492.4a7.52,7.52,0,1,1-7.52,7.52,7.52,7.52,0,0,1,7.52-7.52Z"/></g><g id="CIRCLE-145" data-name="CIRCLE"><path class="cls-1" d="M1813.85,525.54a7.52,7.52,0,1,1-7.52,7.52,7.52,7.52,0,0,1,7.52-7.52Z"/></g><g id="CIRCLE-146" data-name="CIRCLE"><path class="cls-1" d="M1802.81,465.82a7.52,7.52,0,1,1-7.52,7.52,7.52,7.52,0,0,1,7.52-7.52Z"/></g><g id="LWPOLYLINE-75" data-name="LWPOLYLINE"><path class="cls-1" d="M1862.25,11.07V93.81c-5,5-12,8-17.42,13.93"/></g><g id="LWPOLYLINE-76" data-name="LWPOLYLINE"><polyline class="cls-1" points="1820.96 87.31 1723.96 87.31 1674.93 38.49"/></g><g id="LWPOLYLINE-77" data-name="LWPOLYLINE"><polyline class="cls-1" points="1467.63 115.64 1488.17 136.18 1488.17 181.86 1522.56 216.25 1522.56 248.14 1576.28 301.86 1986.6 301.86 2206.13 520.53"/></g><g id="LWPOLYLINE-78" data-name="LWPOLYLINE"><polyline class="cls-1" points="1547.13 245.64 1547.13 170.04 1622.89 94.28 1684.51 94.28 1708.95 118.73 1823.39 118.73 1833.94 129.28 1855.59 129.28 1873.14 111.73 1873.14 59.94 1894.9 38.17 2118.72 38.17 2133.87 53.32 2237.52 53.32"/></g><g id="LWPOLYLINE-79" data-name="LWPOLYLINE"><polyline class="cls-1" points="1632.32 170.28 1632.32 194.23 1619.93 206.62 1619.93 263.15 1644.89 288.12 1999.4 288.12 2226.87 515.59"/></g><g id="LWPOLYLINE-80" data-name="LWPOLYLINE"><polyline class="cls-1" points="1806.42 203.31 1827.78 224.66 1909.62 224.66 1952.25 182.03 2051.78 182.03 2224.48 354.73"/></g><g id="LWPOLYLINE-81" data-name="LWPOLYLINE"><polyline class="cls-1" points="1802.62 155.87 1873.07 155.87 1911.78 117.15 2108.65 117.15 2233.19 241.69"/></g><g id="LWPOLYLINE-82" data-name="LWPOLYLINE"><polyline class="cls-1" points="1674.24 158.64 1700.23 132.65 1821.35 132.65 1830.46 141.76 1864 141.76 1887.54 118.22 1887.54 91.95 1908.27 71.22 2112.01 71.22 2223.61 182.82"/></g><g id="LWPOLYLINE-83" data-name="LWPOLYLINE"><polyline class="cls-1" points="1845.18 195.34 1911.63 195.34 1940.62 166.35 2055.82 166.35 2228.9 339.43"/></g><g id="LWPOLYLINE-84" data-name="LWPOLYLINE"><polyline class="cls-1" points="1757.98 155.18 1782.23 179.43 1817.53 179.43 1827.4 169.56 1874.39 169.56 1913.53 130.43 2104.56 130.43 2238.03 263.9"/></g><g id="LWPOLYLINE-85" data-name="LWPOLYLINE"><polyline class="cls-1" points="1711.96 206.42 1761.17 206.42 1796.05 241.31 2088.82 241.31 2253.44 405.93"/></g><g id="LWPOLYLINE-86" data-name="LWPOLYLINE"><polyline class="cls-1" points="1671.37 207.37 1695.17 231.17 1765.02 231.17 1796.53 262.69 2045.55 262.69 2251.43 468.57"/></g><g id="LWPOLYLINE-87" data-name="LWPOLYLINE"><polyline class="cls-1" points="1430.71 120.08 1470.72 160.09 1470.72 186.09 1509.83 225.21 1509.83 260.25 1564.97 315.39 1977.92 315.39 2206.13 543.6"/></g><g id="LWPOLYLINE-88" data-name="LWPOLYLINE"><polyline class="cls-1" points="1903.01 374.27 1937.7 374.27 2150.54 587.11"/></g><g id="LWPOLYLINE-89" data-name="LWPOLYLINE"><polyline class="cls-1" points="1424.55 246 1424.55 279.65 1520.26 375.35 1836.62 375.35 2175.28 714.01"/></g><g id="LWPOLYLINE-90" data-name="LWPOLYLINE"><polyline class="cls-1" points="1788.66 499.92 1882.23 499.92 2179.49 797.19"/></g><g id="LWPOLYLINE-91" data-name="LWPOLYLINE"><line class="cls-1" x1="1813.85" y1="533.06" x2="2317.06" y2="1036.27"/></g><g id="LWPOLYLINE-92" data-name="LWPOLYLINE"><line class="cls-1" x1="1604.75" y1="473.17" x2="1802.81" y2="473.34"/></g><g id="LWPOLYLINE-93" data-name="LWPOLYLINE"><polyline class="cls-1" points="1659.98 564.13 1887.05 791.21 1887.05 920.2 1872.47 934.78 1872.47 1123.33 1816.14 1179.66 1816.14 1372.94 1852.63 1409.42 1852.63 1457.27"/></g><g id="LWPOLYLINE-94" data-name="LWPOLYLINE"><polyline class="cls-1" points="1384.52 119.17 1352.08 151.6 1352.08 292.88 1438.2 378.18"/></g><g id="LWPOLYLINE-95" data-name="LWPOLYLINE"><polyline class="cls-1" points="1517.59 766.02 1517.59 813.35 1503.42 827.52 1503.42 859.26 1641.02 996.86 1641.02 1653.61 1628.22 1666.41 1609.75 1666.41 1599.72 1656.38 1575.51 1656.38 1541.58 1690.31"/></g><g id="LWPOLYLINE-96" data-name="LWPOLYLINE"><polyline class="cls-1" points="1293.6 378.34 1341.82 426.57 1341.82 468.77 1459.44 586.38 1478.95 586.38"/></g><g id="LWPOLYLINE-97" data-name="LWPOLYLINE"><polyline class="cls-1" points="1470.4 793.39 1481.64 782.15 1481.64 647.71 1245.19 411.26 1245.19 361.63"/></g><g id="LWPOLYLINE-98" data-name="LWPOLYLINE"><polyline class="cls-1" points="1351.95 677.68 1351.95 901.55 1473.77 1023.38 1473.77 1339.25 1530.77 1396.25 1530.77 1457.98 1546.05 1473.25"/></g><g id="LWPOLYLINE-99" data-name="LWPOLYLINE"><polyline class="cls-1" points="1277.29 661.3 1277.29 916.89 1412.24 1051.84 1412.24 1382.33 1447.51 1417.6 1447.51 1603.01"/></g><g id="LWPOLYLINE-100" data-name="LWPOLYLINE"><polyline class="cls-1" points="1270.47 552.48 1237.24 552.48 1219.96 569.76 1219.96 654.7 1233.79 668.52 1233.79 939.57 1365.98 1071.76 1365.98 1643.52 1410.78 1688.31"/></g><g id="LWPOLYLINE-101" data-name="LWPOLYLINE"><polyline class="cls-1" points="1229.85 470.45 1208.83 491.47 1209.23 784.2"/></g><g id="LWPOLYLINE-102" data-name="LWPOLYLINE"><polyline class="cls-1" points="1181.1 168.54 1074.1 275.54 1074.1 881.47 1074.1 994.95 1139.49 1060.34 1072.52 1127.31 944.76 1127.31 944.76 1014.97 894.73 964.94 894.73 913.58 862.64 881.49 862.64 851 820.88 809.24 820.88 521.34 795.67 496.13 795.67 469.98"/></g><g id="CIRCLE-147" data-name="CIRCLE"><path class="cls-1" d="M755.23,999.23a7.52,7.52,0,1,1-7.52,7.52,7.52,7.52,0,0,1,7.52-7.52Z"/></g><g id="LWPOLYLINE-103" data-name="LWPOLYLINE"><polyline class="cls-1" points="755.23 1006.75 731.5 983.02 670.28 983.02 633.41 946.15 633.41 278.75"/></g><g id="CIRCLE-148" data-name="CIRCLE"><path class="cls-1" d="M801.78,873.94a7.52,7.52,0,1,1-7.52,7.52,7.52,7.52,0,0,1,7.52-7.52Z"/></g><g id="CIRCLE-149" data-name="CIRCLE"><path class="cls-1" d="M2189,1390.65a7.52,7.52,0,1,1-7.52,7.52,7.52,7.52,0,0,1,7.52-7.52Z"/></g><g id="CIRCLE-150" data-name="CIRCLE"><path class="cls-1" d="M571.62,128.4a7.52,7.52,0,1,1-7.52,7.52,7.52,7.52,0,0,1,7.52-7.52Z"/></g><g id="CIRCLE-151" data-name="CIRCLE"><path class="cls-1" d="M825.27,335.85a7.52,7.52,0,1,1-7.52,7.52,7.52,7.52,0,0,1,7.52-7.52Z"/></g><g id="CIRCLE-152" data-name="CIRCLE"><path class="cls-1" d="M944.31,125.18a7.52,7.52,0,1,1-7.52,7.52,7.52,7.52,0,0,1,7.52-7.52Z"/></g><g id="CIRCLE-153" data-name="CIRCLE"><path class="cls-1" d="M465.36,316.27a7.52,7.52,0,1,1-7.52,7.52,7.52,7.52,0,0,1,7.52-7.52Z"/></g><g id="CIRCLE-154" data-name="CIRCLE"><path class="cls-1" d="M1164.05,310.9a7.52,7.52,0,1,1-7.52,7.52,7.52,7.52,0,0,1,7.52-7.52Z"/></g><g id="CIRCLE-155" data-name="CIRCLE"><path class="cls-1" d="M1192.69,379a7.52,7.52,0,1,1-7.52,7.52,7.52,7.52,0,0,1,7.52-7.52Z"/></g><g id="CIRCLE-156" data-name="CIRCLE"><path class="cls-1" d="M1304.56,849.59a7.52,7.52,0,1,1-7.52,7.52,7.52,7.52,0,0,1,7.52-7.52Z"/></g><g id="CIRCLE-157" data-name="CIRCLE"><path class="cls-1" d="M1384.52,276.91a7.52,7.52,0,1,1-7.52,7.52,7.52,7.52,0,0,1,7.52-7.52Z"/></g><g id="CIRCLE-158" data-name="CIRCLE"><path class="cls-1" d="M1344.17,85a7.52,7.52,0,1,1-7.52,7.52,7.52,7.52,0,0,1,7.52-7.52Z"/></g><g id="CIRCLE-159" data-name="CIRCLE"><path class="cls-1" d="M1489.18,248.4a7.52,7.52,0,1,1-7.52,7.52,7.52,7.52,0,0,1,7.52-7.52Z"/></g><g id="CIRCLE-160" data-name="CIRCLE"><path class="cls-1" d="M1141.55,397.79a7.52,7.52,0,1,1-7.52,7.52,7.52,7.52,0,0,1,7.52-7.52Z"/></g><g id="CIRCLE-161" data-name="CIRCLE"><path class="cls-1" d="M1053.07,1458.69a7.52,7.52,0,1,1-7.52,7.52,7.52,7.52,0,0,1,7.52-7.52Z"/></g><g id="CIRCLE-162" data-name="CIRCLE"><path class="cls-1" d="M877,1099.16a7.52,7.52,0,1,1-7.52,7.52,7.52,7.52,0,0,1,7.52-7.52Z"/></g><g id="CIRCLE-163" data-name="CIRCLE"><path class="cls-1" d="M944.39,1355.09a7.52,7.52,0,1,1-7.52,7.52,7.52,7.52,0,0,1,7.52-7.52Z"/></g><g id="CIRCLE-164" data-name="CIRCLE"><path class="cls-1" d="M880.85,1430.54a7.52,7.52,0,1,1-7.52,7.52,7.52,7.52,0,0,1,7.52-7.52Z"/></g><g id="CIRCLE-165" data-name="CIRCLE"><path class="cls-1" d="M934.54,1689.55a7.52,7.52,0,1,1-7.52,7.52,7.52,7.52,0,0,1,7.52-7.52Z"/></g><g id="CIRCLE-166" data-name="CIRCLE"><path class="cls-1" d="M974.88,1716.24a7.52,7.52,0,1,1-7.52,7.52,7.52,7.52,0,0,1,7.52-7.52Z"/></g><g id="CIRCLE-167" data-name="CIRCLE"><path class="cls-1" d="M891.77,1658.53a7.52,7.52,0,1,1-7.52,7.52,7.52,7.52,0,0,1,7.52-7.52Z"/></g><g id="CIRCLE-168" data-name="CIRCLE"><path class="cls-1" d="M785.64,1338.3a7.52,7.52,0,1,1-7.52,7.52,7.52,7.52,0,0,1,7.52-7.52Z"/></g><g id="CIRCLE-169" data-name="CIRCLE"><path class="cls-1" d="M668.53,1197.65a7.52,7.52,0,1,1-7.52,7.52,7.52,7.52,0,0,1,7.52-7.52Z"/></g><g id="CIRCLE-170" data-name="CIRCLE"><path class="cls-1" d="M715,1111.6a7.52,7.52,0,1,1-7.52,7.52,7.52,7.52,0,0,1,7.52-7.52Z"/></g><g id="CIRCLE-171" data-name="CIRCLE"><path class="cls-1" d="M784.68,1092a7.52,7.52,0,1,1-7.52,7.52,7.52,7.52,0,0,1,7.52-7.52Z"/></g><g id="CIRCLE-172" data-name="CIRCLE"><path class="cls-1" d="M530.39,1308.8a7.52,7.52,0,1,1-7.52,7.52,7.52,7.52,0,0,1,7.52-7.52Z"/></g><g id="CIRCLE-173" data-name="CIRCLE"><path class="cls-1" d="M505.21,1275.66a7.52,7.52,0,1,1-7.52,7.52,7.52,7.52,0,0,1,7.52-7.52Z"/></g><g id="CIRCLE-174" data-name="CIRCLE"><path class="cls-1" d="M525.22,1389.24a7.52,7.52,0,1,1-7.52,7.52,7.52,7.52,0,0,1,7.52-7.52Z"/></g><g id="CIRCLE-175" data-name="CIRCLE"><path class="cls-1" d="M397.76,1398.2a7.52,7.52,0,1,1-7.52,7.52,7.52,7.52,0,0,1,7.52-7.52Z"/></g><g id="CIRCLE-176" data-name="CIRCLE"><path class="cls-1" d="M473.88,1613.38a7.52,7.52,0,1,1-7.52,7.52,7.52,7.52,0,0,1,7.52-7.52Z"/></g><g id="CIRCLE-177" data-name="CIRCLE"><path class="cls-1" d="M686.73,1638.44a7.52,7.52,0,1,1-7.52,7.52,7.52,7.52,0,0,1,7.52-7.52Z"/></g><g id="LWPOLYLINE-104" data-name="LWPOLYLINE"><polyline class="cls-1" points="686.73 1645.96 686.73 1622.02 699.13 1609.62 699.13 1553.09 674.16 1528.13 319.66 1528.13 92.18 1300.65"/></g><g id="LWPOLYLINE-105" data-name="LWPOLYLINE"><polyline class="cls-1" points="473.88 1620.9 407.43 1620.9 378.43 1649.89 263.24 1649.89 90.16 1476.82"/></g><g id="LWPOLYLINE-106" data-name="LWPOLYLINE"><polyline class="cls-1" points="891.77 1666.05 861.86 1636.15 861.86 1549.44 782.61 1470.18 361.16 1470.18 172.19 1281.21"/></g><g id="LWPOLYLINE-107" data-name="LWPOLYLINE"><polyline class="cls-1" points="397.76 1405.73 397.76 1379.23 162.8 1144.27"/></g><g id="LWPOLYLINE-108" data-name="LWPOLYLINE"><polyline class="cls-1" points="530.39 1316.32 436.83 1316.32 139.56 1019.05"/></g><g id="LWPOLYLINE-109" data-name="LWPOLYLINE"><polyline class="cls-1" points="525.22 1396.76 487.63 1396.76 139.06 1048.19"/></g><g id="LWPOLYLINE-110" data-name="LWPOLYLINE"><polyline class="cls-1" points="785.64 1345.82 754.16 1314.34 599.05 1314.34 219.49 934.78"/></g><g id="LWPOLYLINE-111" data-name="LWPOLYLINE"><line class="cls-1" x1="505.21" y1="1283.18" x2="2" y2="779.97"/></g><g id="LWPOLYLINE-112" data-name="LWPOLYLINE"><polyline class="cls-1" points="934.54 1697.08 966.97 1664.64 966.97 1523.37 880.86 1438.06"/></g><g id="LWPOLYLINE-113" data-name="LWPOLYLINE"><polyline class="cls-1" points="974.88 1723.77 994.04 1704.61 994.04 1508.42 755.49 1269.86 594.05 1269.86 254.53 930.35 254.53 738.75 223.63 707.85 223.63 653.29 175.21 604.87 175.21 490.9 134.4 450.09 100.29 450.09"/></g><g id="LWPOLYLINE-114" data-name="LWPOLYLINE"><polyline class="cls-1" points="944.39 1362.62 784.68 1202.9 784.68 1099.5"/></g><g id="LWPOLYLINE-115" data-name="LWPOLYLINE"><polyline class="cls-1" points="1053.07 1466.22 1064.58 1477.72 1082.38 1477.72 1097.58 1462.52 1097.58 1409.82 890.89 1203.12 890.89 1120.76 877.03 1106.68"/></g><g id="CIRCLE-178" data-name="CIRCLE"><path class="cls-1" d="M1707.07,1714.22a7.52,7.52,0,1,1-7.52,7.52,7.52,7.52,0,0,1,7.52-7.52Z"/></g><g id="CIRCLE-179" data-name="CIRCLE"><path class="cls-1" d="M1664.54,1758.91a7.52,7.52,0,1,1-7.52,7.52,7.52,7.52,0,0,1,7.52-7.52Z"/></g><g id="CIRCLE-180" data-name="CIRCLE"><path class="cls-1" d="M1499.37,1552.78a7.52,7.52,0,1,1-7.52,7.52,7.52,7.52,0,0,1,7.52-7.52Z"/></g><g id="CIRCLE-181" data-name="CIRCLE"><path class="cls-1" d="M1523.39,1338.74a7.52,7.52,0,1,1-7.52,7.52,7.52,7.52,0,0,1,7.52-7.52Z"/></g><g id="CIRCLE-182" data-name="CIRCLE"><path class="cls-1" d="M1414.14,1632a7.52,7.52,0,1,1-7.52,7.52,7.52,7.52,0,0,1,7.52-7.52Z"/></g><g id="CIRCLE-183" data-name="CIRCLE"><path class="cls-1" d="M1333,1643.75a7.52,7.52,0,1,1-7.52,7.52,7.52,7.52,0,0,1,7.52-7.52Z"/></g><g id="CIRCLE-184" data-name="CIRCLE"><path class="cls-1" d="M1736.72,1449.82a7.52,7.52,0,1,1-7.52,7.52,7.52,7.52,0,0,1,7.52-7.52Z"/></g><g id="CIRCLE-185" data-name="CIRCLE"><path class="cls-1" d="M1764.44,1493.55a7.52,7.52,0,1,1-7.52,7.52,7.52,7.52,0,0,1,7.52-7.52Z"/></g><g id="CIRCLE-186" data-name="CIRCLE"><path class="cls-1" d="M2022.35,1257.56a7.52,7.52,0,1,1-7.52,7.52,7.52,7.52,0,0,1,7.52-7.52Z"/></g><g id="CIRCLE-187" data-name="CIRCLE"><path class="cls-1" d="M1877.84,1734.59a7.52,7.52,0,1,1-7.52,7.52,7.52,7.52,0,0,1,7.52-7.52Z"/></g><g id="CIRCLE-188" data-name="CIRCLE"><path class="cls-1" d="M1920.1,1885.76a7.52,7.52,0,1,1-7.52,7.52,7.52,7.52,0,0,1,7.52-7.52Z"/></g><g id="CIRCLE-189" data-name="CIRCLE"><path class="cls-1" d="M2178.13,949.28a7.52,7.52,0,1,1-7.52,7.52,7.52,7.52,0,0,1,7.52-7.52Z"/></g><g id="CIRCLE-190" data-name="CIRCLE"><path class="cls-1" d="M1306,1103.24a7.52,7.52,0,1,1-7.52,7.52,7.52,7.52,0,0,1,7.52-7.52Z"/></g><g id="CIRCLE-191" data-name="CIRCLE"><path class="cls-1" d="M1306,1274.89a7.52,7.52,0,1,1-7.52,7.52,7.52,7.52,0,0,1,7.52-7.52Z"/></g><g id="CIRCLE-192" data-name="CIRCLE"><path class="cls-1" d="M1251.25,1590a7.52,7.52,0,1,1-7.52,7.52,7.52,7.52,0,0,1,7.52-7.52Z"/></g><g id="CIRCLE-193" data-name="CIRCLE"><path class="cls-1" d="M1176.45,1172.86a7.52,7.52,0,1,1-7.52,7.52,7.52,7.52,0,0,1,7.52-7.52Z"/></g><g id="CIRCLE-194" data-name="CIRCLE"><path class="cls-1" d="M1025.16,1155.77a7.52,7.52,0,1,1-7.52,7.52,7.52,7.52,0,0,1,7.52-7.52Z"/></g><g id="CIRCLE-195" data-name="CIRCLE"><path class="cls-1" d="M1627.38,1958.36a7.52,7.52,0,1,1-7.52,7.52,7.52,7.52,0,0,1,7.52-7.52Z"/></g><g id="CIRCLE-196" data-name="CIRCLE"><path class="cls-1" d="M1634.62,1876.46a7.52,7.52,0,1,1-7.52,7.52,7.52,7.52,0,0,1,7.52-7.52Z"/></g><g id="LWPOLYLINE-116" data-name="LWPOLYLINE"><polyline class="cls-1" points="1664.54 1766.43 1641.69 1743.58 1579.38 1743.58 1563.22 1727.42 1563.22 1717.81 1552.91 1707.51 1526.66 1707.51 1511.8 1692.64 1511.8 1676.7 1570.71 1617.79 1570.71 1535.87 1616.4 1490.18 1616.4 1026.33 1453.99 863.91 1453.99 838.54 1405.25 789.8 1405.25 617.22 1192.69 404.66 1192.69 386.53"/></g><g id="LWPOLYLINE-117" data-name="LWPOLYLINE"><polyline class="cls-1" points="1707.07 1721.75 1721.99 1706.83 1721.99 1647.48 1671.24 1596.72 1671.24 941.9 1731.68 881.47 1731.68 833.28 1708.79 810.39 1598.24 810.39 1572.44 784.59 1572.44 758.65 1604.09 727.01 1604.09 697.12"/></g><g id="LWPOLYLINE-118" data-name="LWPOLYLINE"><polyline class="cls-1" points="1736.72 1457.34 1736.72 1017.9 1858.04 896.59 1858.04 818.59 1650.52 611.07"/></g><g id="LWPOLYLINE-119" data-name="LWPOLYLINE"><polyline class="cls-1" points="1764.44 1501.07 1779.05 1515.68 1855.41 1515.68 1887.64 1483.45 1887.64 1175.49 1918.06 1145.07 1918.06 1072.84 1996.49 994.4 1996.49 817.87 1725.01 546.38 1563.57 546.38 1325.01 307.83 1325.01 111.64 1344.17 92.48"/></g><g id="LWPOLYLINE-120" data-name="LWPOLYLINE"><polyline class="cls-1" points="2022.35 1265.08 2022.35 1385.02 2040.82 1403.49 2057.47 1403.49 2130.16 1476.19 2206.13 1476.19"/></g><g id="LWPOLYLINE-121" data-name="LWPOLYLINE"><polyline class="cls-1" points="2188.96 1398.17 2133.34 1342.56 2133.34 1228.44 2084.08 1179.18 2084.08 1123.63 2032.96 1072.51 2032.96 814.87 1720 501.91 1564.9 501.91 1533.41 470.42"/></g><g id="LWPOLYLINE-122" data-name="LWPOLYLINE"><polyline class="cls-1" points="2178.13 956.8 2178.13 1188.83 2224.34 1235.04"/></g><g id="LWPOLYLINE-123" data-name="LWPOLYLINE"><polyline class="cls-1" points="1634.62 1883.98 1655.92 1862.68 1791.56 1862.68 1877.84 1778.53 1877.84 1742.11"/></g><g id="LWPOLYLINE-124" data-name="LWPOLYLINE"><polyline class="cls-1" points="1627.38 1965.88 1648.44 1944.83 1722.98 1944.83 1749.21 1918.6 1821.81 1918.6 1943.81 1796.6 1943.81 1703.94 1953.81 1693.94 2206.13 1693.94"/></g><g id="LWPOLYLINE-125" data-name="LWPOLYLINE"><polyline class="cls-1" points="1920.1 1893.28 2141.09 1893.28 2151.58 1882.8 2136.08 1867.3 1975.33 1867.3 1964.37 1856.34 1980.65 1840.07 2206.13 1840.07"/></g><g id="LWPOLYLINE-126" data-name="LWPOLYLINE"><polyline class="cls-1" points="1414.14 1639.48 1392.07 1617.41 1392.57 1382.09"/></g><g id="LWPOLYLINE-127" data-name="LWPOLYLINE"><polyline class="cls-1" points="1306.03 1282.41 1275.5 1282.41 1176.44 1180.38"/></g><g id="LWPOLYLINE-128" data-name="LWPOLYLINE"><polyline class="cls-1" points="1251.25 1597.49 1261.31 1587.43 1261.31 1448.59 1025.16 1212.45 1025.16 1163.3"/></g><g id="CIRCLE-197" data-name="CIRCLE"><path class="cls-1" d="M255.52,476.78A7.52,7.52,0,1,1,248,484.3a7.52,7.52,0,0,1,7.52-7.52Z"/></g><g id="CIRCLE-198" data-name="CIRCLE"><path class="cls-1" d="M338.23,697.19a7.52,7.52,0,1,1-7.52,7.52,7.52,7.52,0,0,1,7.52-7.52Z"/></g><g id="LWPOLYLINE-129" data-name="LWPOLYLINE"><polyline class="cls-1" points="571.62 135.92 552.33 155.21 552.33 188.81 601.04 237.51 601.04 840.09 586.61 854.52 586.61 982.19 610.26 1005.85 720.81 1005.85 746.62 1031.65 746.62 1057.59 714.97 1089.24 714.97 1119.12"/></g><g id="LWPOLYLINE-130" data-name="LWPOLYLINE"><polyline class="cls-1" points="465.36 323.8 452.24 336.92 452.24 414.58 465.1 427.44 465.1 634.79 416.35 683.54 416.35 749.37 386.31 779.41 386.31 922.95 668.53 1205.17"/></g><g id="LWPOLYLINE-131" data-name="LWPOLYLINE"><polyline class="cls-1" points="255.52 484.3 255.52 540.7 338.67 623.85 338.67 704.71"/></g><g id="LWPOLYLINE-132" data-name="LWPOLYLINE"><polyline class="cls-1" points="944.32 132.7 967.28 155.66 967.28 735.94 1013.35 782.02 1013.35 893.54 1046.84 927.03 1046.84 1005.28 1099.95 1058.39 1058.55 1099.79 970.59 1099.79 970.59 1003.33 922.47 955.21 922.47 898.07 908.97 884.57 908.97 828.82 865.19 785.04 865.19 457.07 825.27 417.15 825.27 343.37"/></g><g id="CIRCLE-199" data-name="CIRCLE"><path class="cls-1" d="M1364.22,645.93a7.52,7.52,0,1,1-7.52,7.52,7.52,7.52,0,0,1,7.52-7.52Z"/></g><g id="CIRCLE-200" data-name="CIRCLE"><path class="cls-1" d="M1482.47,409.21a7.52,7.52,0,1,1-7.52,7.52,7.52,7.52,0,0,1,7.52-7.52Z"/></g><g id="CIRCLE-201" data-name="CIRCLE"><path class="cls-1" d="M1533.41,462.9a7.52,7.52,0,1,1-7.52,7.52,7.52,7.52,0,0,1,7.52-7.52Z"/></g><g id="CIRCLE-202" data-name="CIRCLE"><path class="cls-1" d="M1650.52,603.55a7.52,7.52,0,1,1-7.52,7.52,7.52,7.52,0,0,1,7.52-7.52Z"/></g><g id="CIRCLE-203" data-name="CIRCLE"><path class="cls-1" d="M1604.09,689.6a7.52,7.52,0,1,1-7.52,7.52,7.52,7.52,0,0,1,7.52-7.52Z"/></g><g id="CIRCLE-204" data-name="CIRCLE"><path class="cls-1" d="M1858.85,470.31a7.52,7.52,0,1,1-7.52,7.52,7.52,7.52,0,0,1,7.52-7.52Z"/></g><g id="CIRCLE-205" data-name="CIRCLE"><path class="cls-1" d="M1850.91,525.55a7.52,7.52,0,1,1-7.52,7.52,7.52,7.52,0,0,1,7.52-7.52Z"/></g><g id="CIRCLE-206" data-name="CIRCLE"><path class="cls-1" d="M1993.35,468a7.52,7.52,0,1,1-7.52,7.52,7.52,7.52,0,0,1,7.52-7.52Z"/></g><g id="LWPOLYLINE-133" data-name="LWPOLYLINE"><polyline class="cls-1" points="1489.18 255.92 1561.74 328.75 1968.25 328.75 2167.5 522.7"/></g><g id="LWPOLYLINE-134" data-name="LWPOLYLINE"><line class="cls-1" x1="1993.35" y1="475.55" x2="2146.62" y2="639.81"/></g><g id="LWPOLYLINE-135" data-name="LWPOLYLINE"><polyline class="cls-1" points="1850.91 533.07 1879.48 533.07 2162.48 816.08"/></g><g id="LWPOLYLINE-136" data-name="LWPOLYLINE"><polyline class="cls-1" points="1858.85 477.84 1823.18 442.17 1507.9 442.17 1482.59 416.85"/></g><g id="LWPOLYLINE-137" data-name="LWPOLYLINE"><polyline class="cls-1" points="1384.52 284.43 1501.27 401.18 1831.63 401.18 2295.57 865.11"/></g><g id="LWPOLYLINE-138" data-name="LWPOLYLINE"><polyline class="cls-1" points="1364.22 653.46 1364.22 824.06 1391.29 851.13 1391.29 900.11 1498.18 1007.01 1498.18 1294.9 1523.39 1320.11 1523.39 1346.26"/></g><g id="LWPOLYLINE-139" data-name="LWPOLYLINE"><polyline class="cls-1" points="1304.56 857.12 1304.56 905.19 1439.12 1039.74 1439.12 1371.09 1472.11 1404.08 1472.11 1533.05 1499.37 1560.31"/></g><g id="LWPOLYLINE-140" data-name="LWPOLYLINE"><polyline class="cls-1" points="1164.05 318.43 1164.05 460.37 1179.14 475.45 1179.14 819.03 1204.35 844.24 1204.35 949.6 1340.75 1086 1340.75 1560.65 1310.17 1591.23 1310.17 1609.71 1332.96 1632.5 1332.96 1651.27"/></g><g id="LWPOLYLINE-141" data-name="LWPOLYLINE"><polyline class="cls-1" points="1306.03 1110.77 1274.91 1110.77 1140.51 976.37 1141.56 405.32"/></g><g id="CIRCLE-207" data-name="CIRCLE"><path class="cls-1" d="M612,87a7.52,7.52,0,1,1-7.52,7.52A7.52,7.52,0,0,1,612,87Z"/></g><g id="CIRCLE-208" data-name="CIRCLE"><path class="cls-1" d="M773,335.47a7.52,7.52,0,1,1-7.52,7.52,7.52,7.52,0,0,1,7.52-7.52Z"/></g><g id="CIRCLE-209" data-name="CIRCLE"><path class="cls-1" d="M908.28,120.41a7.52,7.52,0,1,1-7.52,7.52,7.52,7.52,0,0,1,7.52-7.52Z"/></g><g id="CIRCLE-210" data-name="CIRCLE"><path class="cls-1" d="M582.33,351.38a7.52,7.52,0,1,1-7.52,7.52,7.52,7.52,0,0,1,7.52-7.52Z"/></g><g id="CIRCLE-211" data-name="CIRCLE"><path class="cls-1" d="M554.62,307.65a7.52,7.52,0,1,1-7.52,7.52,7.52,7.52,0,0,1,7.52-7.52Z"/></g><g id="CIRCLE-212" data-name="CIRCLE"><path class="cls-1" d="M336.34,279.66a7.52,7.52,0,1,1-7.52,7.52,7.52,7.52,0,0,1,7.52-7.52Z"/></g><g id="CIRCLE-213" data-name="CIRCLE"><path class="cls-1" d="M1183.82,124.18a7.52,7.52,0,1,1-7.52,7.52,7.52,7.52,0,0,1,7.52-7.52Z"/></g><g id="CIRCLE-214" data-name="CIRCLE"><path class="cls-1" d="M1266,342.5a7.52,7.52,0,1,1-7.52,7.52,7.52,7.52,0,0,1,7.52-7.52Z"/></g><g id="CIRCLE-215" data-name="CIRCLE"><path class="cls-1" d="M1374.66,446.11a7.52,7.52,0,1,1-7.52,7.52,7.52,7.52,0,0,1,7.52-7.52Z"/></g><g id="CIRCLE-216" data-name="CIRCLE"><path class="cls-1" d="M1341.47,52a7.52,7.52,0,1,1-7.52,7.52,7.52,7.52,0,0,1,7.52-7.52Z"/></g><g id="CIRCLE-217" data-name="CIRCLE"><path class="cls-1" d="M1427.29,142.67a7.52,7.52,0,1,1-7.52,7.52,7.52,7.52,0,0,1,7.52-7.52Z"/></g><g id="CIRCLE-218" data-name="CIRCLE"><path class="cls-1" d="M1793.84,412a7.52,7.52,0,1,1-7.52,7.52,7.52,7.52,0,0,1,7.52-7.52Z"/></g><g id="CIRCLE-219" data-name="CIRCLE"><path class="cls-1" d="M1921.29,403a7.52,7.52,0,1,1-7.52,7.52,7.52,7.52,0,0,1,7.52-7.52Z"/></g><g id="CIRCLE-220" data-name="CIRCLE"><path class="cls-1" d="M226.32,853.52a7.52,7.52,0,1,1-7.52,7.52,7.52,7.52,0,0,1,7.52-7.52Z"/></g><g id="LWPOLYLINE-142" data-name="LWPOLYLINE"><polyline class="cls-1" points="226.32 861.04 205.03 861.04 168.06 824.07 168.06 552.46 95.79 480.19"/></g><g id="CIRCLE-221" data-name="CIRCLE"><path class="cls-1" d="M1093.3,1692a7.52,7.52,0,1,1-7.52,7.52,7.52,7.52,0,0,1,7.52-7.52Z"/></g><g id="CIRCLE-222" data-name="CIRCLE"><path class="cls-1" d="M1073.87,1447.1a7.52,7.52,0,1,1-7.52,7.52,7.52,7.52,0,0,1,7.52-7.52Z"/></g><g id="CIRCLE-223" data-name="CIRCLE"><path class="cls-1" d="M848.65,1015.33a7.52,7.52,0,1,1-7.52,7.52,7.52,7.52,0,0,1,7.52-7.52Z"/></g><g id="CIRCLE-224" data-name="CIRCLE"><path class="cls-1" d="M801.47,1042.7a7.52,7.52,0,1,1-7.52,7.52,7.52,7.52,0,0,1,7.52-7.52Z"/></g><g id="CIRCLE-225" data-name="CIRCLE"><path class="cls-1" d="M934.54,1524.29a7.52,7.52,0,1,1-7.52,7.52,7.52,7.52,0,0,1,7.52-7.52Z"/></g><g id="CIRCLE-226" data-name="CIRCLE"><path class="cls-1" d="M968,1685.79a7.52,7.52,0,1,1-7.52,7.52,7.52,7.52,0,0,1,7.52-7.52Z"/></g><g id="CIRCLE-227" data-name="CIRCLE"><path class="cls-1" d="M829.88,1552.8a7.52,7.52,0,1,1-7.52,7.52,7.52,7.52,0,0,1,7.52-7.52Z"/></g><g id="CIRCLE-228" data-name="CIRCLE"><path class="cls-1" d="M714.31,1335.55a7.52,7.52,0,1,1-7.52,7.52,7.52,7.52,0,0,1,7.52-7.52Z"/></g><g id="CIRCLE-229" data-name="CIRCLE"><path class="cls-1" d="M714.28,1244.11a7.52,7.52,0,1,1-7.52,7.52,7.52,7.52,0,0,1,7.52-7.52Z"/></g><g id="CIRCLE-230" data-name="CIRCLE"><path class="cls-1" d="M516.25,1335.38a7.52,7.52,0,1,1-7.52,7.52,7.52,7.52,0,0,1,7.52-7.52Z"/></g><g id="CIRCLE-231" data-name="CIRCLE"><path class="cls-1" d="M444.34,1255.28a7.52,7.52,0,1,1-7.52,7.52,7.52,7.52,0,0,1,7.52-7.52Z"/></g><g id="CIRCLE-232" data-name="CIRCLE"><path class="cls-1" d="M561.08,1653.54a7.52,7.52,0,1,1-7.52,7.52,7.52,7.52,0,0,1,7.52-7.52Z"/></g><g id="CIRCLE-233" data-name="CIRCLE"><path class="cls-1" d="M647.68,1601.35a7.52,7.52,0,1,1-7.52,7.52,7.52,7.52,0,0,1,7.52-7.52Z"/></g><g id="CIRCLE-234" data-name="CIRCLE"><path class="cls-1" d="M474.22,1701a7.52,7.52,0,1,1-7.52,7.52,7.52,7.52,0,0,1,7.52-7.52Z"/></g><g id="LWPOLYLINE-143" data-name="LWPOLYLINE"><polyline class="cls-1" points="561.08 1661.07 536.82 1636.81 501.53 1636.81 491.66 1646.68 444.66 1646.68 405.53 1685.81 214.49 1685.81 81.02 1552.34"/></g><g id="LWPOLYLINE-144" data-name="LWPOLYLINE"><polyline class="cls-1" points="647.68 1608.87 623.88 1585.07 554.04 1585.07 522.52 1553.56 273.5 1553.56 67.62 1347.68"/></g><g id="CIRCLE-235" data-name="CIRCLE"><path class="cls-1" d="M325.7,1333.17a7.52,7.52,0,1,1-7.52,7.52,7.52,7.52,0,0,1,7.52-7.52Z"/></g><g id="LWPOLYLINE-145" data-name="LWPOLYLINE"><polyline class="cls-1" points="829.88 1560.32 757.32 1487.49 350.8 1487.49 151.56 1293.55"/></g><g id="LWPOLYLINE-146" data-name="LWPOLYLINE"><line class="cls-1" x1="444.34" y1="1262.8" x2="153.27" y2="971.73"/></g><g id="LWPOLYLINE-147" data-name="LWPOLYLINE"><line class="cls-1" x1="714.31" y1="1343.08" x2="516.25" y2="1342.91"/></g><g id="LWPOLYLINE-148" data-name="LWPOLYLINE"><polyline class="cls-1" points="714.28 1251.64 688.15 1225.51 658.61 1225.51 322.56 889.47 322.56 821.84 401 743.4 401 671.17 431.42 640.76 431.42 332.79 463.64 300.56 540.01 300.56 554.62 315.17"/></g><g id="LWPOLYLINE-149" data-name="LWPOLYLINE"><polyline class="cls-1" points="934.54 1531.82 817.79 1415.07 487.42 1415.07 23.49 951.13"/></g><g id="LWPOLYLINE-150" data-name="LWPOLYLINE"><polyline class="cls-1" points="968.04 1693.31 982.93 1678.43 982.93 1518.3 754.4 1289.78 598.53 1289.78 224.31 915.55"/></g><g id="LWPOLYLINE-151" data-name="LWPOLYLINE"><polyline class="cls-1" points="1093.3 1699.56 1093.3 1529.13 551.01 986.84 551.01 857.09 582.33 825.76 582.33 358.91"/></g><g id="LWPOLYLINE-152" data-name="LWPOLYLINE"><polyline class="cls-1" points="848.65 1022.86 837.41 1034.1 837.41 1168.53 1073.87 1404.99 1073.87 1454.62"/></g><g id="CIRCLE-236" data-name="CIRCLE"><path class="cls-1" d="M1747.43,1672.8a7.52,7.52,0,1,1-7.52,7.52,7.52,7.52,0,0,1,7.52-7.52Z"/></g><g id="CIRCLE-237" data-name="CIRCLE"><path class="cls-1" d="M1664.54,1714.22a7.52,7.52,0,1,1-7.52,7.52,7.52,7.52,0,0,1,7.52-7.52Z"/></g><g id="CIRCLE-238" data-name="CIRCLE"><path class="cls-1" d="M1531.25,1593.39a7.52,7.52,0,1,1-7.52,7.52,7.52,7.52,0,0,1,7.52-7.52Z"/></g><g id="CIRCLE-239" data-name="CIRCLE"><path class="cls-1" d="M1578.43,1466.29a7.52,7.52,0,1,1-7.52,7.52,7.52,7.52,0,0,1,7.52-7.52Z"/></g><g id="CIRCLE-240" data-name="CIRCLE"><path class="cls-1" d="M1503.85,1324.49a7.52,7.52,0,1,1-7.52,7.52,7.52,7.52,0,0,1,7.52-7.52Z"/></g><g id="CIRCLE-241" data-name="CIRCLE"><path class="cls-1" d="M1457.88,1676.3a7.52,7.52,0,1,1-7.52,7.52,7.52,7.52,0,0,1,7.52-7.52Z"/></g><g id="CIRCLE-242" data-name="CIRCLE"><path class="cls-1" d="M1290.34,1631.68a7.52,7.52,0,1,1-7.52,7.52,7.52,7.52,0,0,1,7.52-7.52Z"/></g><g id="CIRCLE-243" data-name="CIRCLE"><path class="cls-1" d="M1853.7,1484.93a7.52,7.52,0,1,1-7.52,7.52,7.52,7.52,0,0,1,7.52-7.52Z"/></g><g id="CIRCLE-244" data-name="CIRCLE"><path class="cls-1" d="M1971.59,1261a7.52,7.52,0,1,1-7.52,7.52,7.52,7.52,0,0,1,7.52-7.52Z"/></g><g id="CIRCLE-245" data-name="CIRCLE"><path class="cls-1" d="M1847.67,1734.59a7.52,7.52,0,1,1-7.52,7.52,7.52,7.52,0,0,1,7.52-7.52Z"/></g><g id="CIRCLE-246" data-name="CIRCLE"><path class="cls-1" d="M1945.39,1866.78a7.52,7.52,0,1,1-7.52,7.52,7.52,7.52,0,0,1,7.52-7.52Z"/></g><g id="CIRCLE-247" data-name="CIRCLE"><path class="cls-1" d="M2066.15,1133.92a7.52,7.52,0,1,1-7.52,7.52,7.52,7.52,0,0,1,7.52-7.52Z"/></g><g id="CIRCLE-248" data-name="CIRCLE"><path class="cls-1" d="M2141.05,951.49a7.52,7.52,0,1,1-7.52,7.52,7.52,7.52,0,0,1,7.52-7.52Z"/></g><g id="CIRCLE-249" data-name="CIRCLE"><path class="cls-1" d="M1657.64,993.33a7.52,7.52,0,1,1-7.52,7.52,7.52,7.52,0,0,1,7.52-7.52Z"/></g><g id="CIRCLE-250" data-name="CIRCLE"><path class="cls-1" d="M1306,1076.52a7.52,7.52,0,1,1-7.52,7.52,7.52,7.52,0,0,1,7.52-7.52Z"/></g><g id="CIRCLE-251" data-name="CIRCLE"><path class="cls-1" d="M1306,1139.77a7.52,7.52,0,1,1-7.52,7.52,7.52,7.52,0,0,1,7.52-7.52Z"/></g><g id="CIRCLE-252" data-name="CIRCLE"><path class="cls-1" d="M1211.24,1683a7.52,7.52,0,1,1-7.52,7.52,7.52,7.52,0,0,1,7.52-7.52Z"/></g><g id="CIRCLE-253" data-name="CIRCLE"><path class="cls-1" d="M972.87,1182.07a7.52,7.52,0,1,1-7.52,7.52,7.52,7.52,0,0,1,7.52-7.52Z"/></g><g id="CIRCLE-254" data-name="CIRCLE"><path class="cls-1" d="M1707.39,1922a7.52,7.52,0,1,1-7.52,7.52,7.52,7.52,0,0,1,7.52-7.52Z"/></g><g id="CIRCLE-255" data-name="CIRCLE"><path class="cls-1" d="M1706.08,1836.73a7.52,7.52,0,1,1-7.52,7.52,7.52,7.52,0,0,1,7.52-7.52Z"/></g><g id="LWPOLYLINE-153" data-name="LWPOLYLINE"><polyline class="cls-1" points="1664.54 1721.75 1681.19 1705.1 1681.19 1665.76 1691.22 1655.72 1691.22 1638.42 1657.92 1605.13 1657.64 1000.85"/></g><g id="LWPOLYLINE-154" data-name="LWPOLYLINE"><polyline class="cls-1" points="1853.7 1492.45 1866.82 1479.33 1866.82 1401.67 1853.95 1388.8 1853.95 1181.45 1902.71 1132.7 1902.71 1066.87 1932.74 1036.84 1932.74 805.86 1697.24 570.35"/></g><g id="LWPOLYLINE-155" data-name="LWPOLYLINE"><polyline class="cls-1" points="1971.59 1268.53 1995.38 1292.31 1995.38 1434.02 2048.2 1486.84 2206.13 1486.84"/></g><g id="LWPOLYLINE-156" data-name="LWPOLYLINE"><polyline class="cls-1" points="2066.15 1141.44 2066.15 1195.31 2106.87 1236.03 2106.87 1373.93 2154.34 1421.39 2206.13 1421.39"/></g><g id="LWPOLYLINE-157" data-name="LWPOLYLINE"><polyline class="cls-1" points="2215.11 1255.25 2166.38 1206.52 2166.38 982.86 2141.05 959.01"/></g><g id="LWPOLYLINE-158" data-name="LWPOLYLINE"><polyline class="cls-1" points="1847.67 1742.11 1847.67 1788.78 1792.19 1844.26 1706.08 1844.26"/></g><g id="LWPOLYLINE-159" data-name="LWPOLYLINE"><polyline class="cls-1" points="1707.39 1929.5 1729.72 1907.17 1815.19 1907.17 1929.61 1792.76 1929.61 1694.52 1967.48 1656.64 2215.57 1656.64"/></g><g id="LWPOLYLINE-160" data-name="LWPOLYLINE"><polyline class="cls-1" points="1945.39 1874.31 1945.39 1851.02 1978.19 1818.21 2206.13 1818.21"/></g><g id="LWPOLYLINE-161" data-name="LWPOLYLINE"><polyline class="cls-1" points="1578.43 1473.81 1594.46 1457.78 1594.46 1099.37 1538.99 1043.9 1538.99 1005.34 1420.85 887.2 1420.85 835.78 1389.19 804.13 1389.19 624.16 1295.83 530.79 1273.46 530.79 1247.57 504.9"/></g><g id="LWPOLYLINE-162" data-name="LWPOLYLINE"><polyline class="cls-1" points="1503.85 1332.02 1486.73 1314.9 1486.73 1014.84 1371.13 899.23 1371.13 856.89"/></g><g id="LWPOLYLINE-163" data-name="LWPOLYLINE"><polyline class="cls-1" points="1531.25 1600.92 1512.92 1582.58 1482.95 1582.58 1459.17 1558.81 1459.17 1409.77 1424.47 1375.07 1424.47 1046.15 1286.93 908.61 1286.93 843.67 1304.56 826.04 1304.56 654.82"/></g><g id="LWPOLYLINE-164" data-name="LWPOLYLINE"><polyline class="cls-1" points="1457.88 1683.82 1435.88 1661.81 1403.3 1661.81 1378.34 1636.85 1378.34 1063.94 1249.59 935.18 1249.59 656.17 1237.75 644.33 1237.75 579.43"/></g><g id="LWPOLYLINE-165" data-name="LWPOLYLINE"><polyline class="cls-1" points="1306.03 1084.04 1325.62 1103.63 1325.62 1548.06 1290.34 1583.34 1290.34 1639.21"/></g><g id="LWPOLYLINE-166" data-name="LWPOLYLINE"><polyline class="cls-1" points="1306.03 1147.29 1276.25 1147.29 1113.46 984.5 1113.46 389.4"/></g><g id="LWPOLYLINE-167" data-name="LWPOLYLINE"><polyline class="cls-1" points="1211.24 1690.52 1223.92 1677.83 1223.92 1629.91 1189.19 1595.17 1189.19 1405.9 972.87 1189.59"/></g><g id="CIRCLE-256" data-name="CIRCLE"><path class="cls-1" d="M750.72,485.36a7.52,7.52,0,1,1-7.52,7.52,7.52,7.52,0,0,1,7.52-7.52Z"/></g><g id="CIRCLE-257" data-name="CIRCLE"><path class="cls-1" d="M332.84,581.23a7.52,7.52,0,1,1-7.52,7.52,7.52,7.52,0,0,1,7.52-7.52Z"/></g><g id="CIRCLE-258" data-name="CIRCLE"><path class="cls-1" d="M308.33,724.2a7.52,7.52,0,1,1-7.52,7.52,7.52,7.52,0,0,1,7.52-7.52Z"/></g><g id="LWPOLYLINE-168" data-name="LWPOLYLINE"><polyline class="cls-1" points="611.98 94.5 597.06 109.42 597.06 168.77 647.81 219.52 647.81 858.74 723.86 934.78 793.43 934.78 815.64 956.98 815.64 988.73 801.47 1002.9 801.47 1050.23"/></g><g id="LWPOLYLINE-169" data-name="LWPOLYLINE"><polyline class="cls-1" points="332.84 588.75 362.28 559.31 362.28 312.97 336.73 287.42"/></g><g id="LWPOLYLINE-170" data-name="LWPOLYLINE"><polyline class="cls-1" points="308.33 731.72 279.12 702.5 279.12 612.3 235.1 568.28 235.1 421.46 175.61 361.97 112.93 361.97"/></g><g id="LWPOLYLINE-171" data-name="LWPOLYLINE"><polyline class="cls-1" points="908.28 127.93 953.07 172.72 953.07 744.48 996.29 787.7 996.29 896.11 1035.23 935.05"/></g><g id="CIRCLE-259" data-name="CIRCLE"><path class="cls-1" d="M1247.57,497.38a7.52,7.52,0,1,1-7.52,7.52,7.52,7.52,0,0,1,7.52-7.52Z"/></g><g id="CIRCLE-260" data-name="CIRCLE"><path class="cls-1" d="M1237.75,571.91a7.52,7.52,0,1,1-7.52,7.52,7.52,7.52,0,0,1,7.52-7.52Z"/></g><g id="CIRCLE-261" data-name="CIRCLE"><path class="cls-1" d="M1304.56,647.3a7.52,7.52,0,1,1-7.52,7.52,7.52,7.52,0,0,1,7.52-7.52Z"/></g><g id="CIRCLE-262" data-name="CIRCLE"><path class="cls-1" d="M1371.13,849.37a7.52,7.52,0,1,1-7.52,7.52,7.52,7.52,0,0,1,7.52-7.52Z"/></g><g id="CIRCLE-263" data-name="CIRCLE"><path class="cls-1" d="M1442,702a7.52,7.52,0,1,1-7.52,7.52A7.52,7.52,0,0,1,1442,702Z"/></g><g id="CIRCLE-264" data-name="CIRCLE"><path class="cls-1" d="M1534.38,709.22a7.52,7.52,0,1,1-7.52,7.52,7.52,7.52,0,0,1,7.52-7.52Z"/></g><g id="CIRCLE-265" data-name="CIRCLE"><path class="cls-1" d="M1697.24,562.83a7.52,7.52,0,1,1-7.52,7.52,7.52,7.52,0,0,1,7.52-7.52Z"/></g><g id="CIRCLE-266" data-name="CIRCLE"><path class="cls-1" d="M1874.72,545.92a7.52,7.52,0,1,1-7.52,7.52,7.52,7.52,0,0,1,7.52-7.52Z"/></g><g id="LWPOLYLINE-172" data-name="LWPOLYLINE"><polyline class="cls-1" points="1427.29 150.19 1457.19 180.1 1457.19 266.81 1536.45 346.06 1957.89 346.06 2146.86 535.03"/></g><g id="LWPOLYLINE-173" data-name="LWPOLYLINE"><polyline class="cls-1" points="1921.29 410.52 1921.29 437.01 2156.26 671.98"/></g><g id="LWPOLYLINE-174" data-name="LWPOLYLINE"><line class="cls-1" x1="1874.72" y1="553.44" x2="2165.79" y2="844.51"/></g><g id="LWPOLYLINE-175" data-name="LWPOLYLINE"><polyline class="cls-1" points="1793.84 419.48 1831.43 419.48 2180 768.05"/></g><g id="LWPOLYLINE-176" data-name="LWPOLYLINE"><polyline class="cls-1" points="1341.47 59.52 1314.76 86.23 1314.76 313.97 1842.47 841.68 1842.47 895.24 1718.02 1019.69 1718.02 1578.73 1766.72 1627.44 1766.72 1661.03 1747.43 1680.32"/></g><g id="LWPOLYLINE-177" data-name="LWPOLYLINE"><polyline class="cls-1" points="1374.66 453.63 1534.38 613.34 1534.38 716.74"/></g><g id="LWPOLYLINE-178" data-name="LWPOLYLINE"><polyline class="cls-1" points="1265.98 350.03 1254.48 338.52 1236.67 338.52 1221.47 353.72 1221.47 406.43 1428.17 613.12 1428.17 695.49 1442.02 709.56"/></g><g id="LWPOLYLINE-179" data-name="LWPOLYLINE"><polyline class="cls-1" points="1183.82 131.7 1049.47 266.06 1049.47 389.13 1022.16 416.43 1022.16 698.21 1062.82 738.87 1062.82 881.47 1062.82 1000.76 1120.94 1058.88 1066.07 1113.75 958.96 1113.75 958.96 1008.51 907.64 957.19 907.64 903.89 887.64 883.9 887.64 835.23 845.28 792.87 845.28 476.99 788.28 419.99 788.28 358.27 773.01 342.99"/></g><g id="CIRCLE-267" data-name="CIRCLE"><path class="cls-1" d="M1113.46,381.88a7.52,7.52,0,1,1-7.52,7.52,7.52,7.52,0,0,1,7.52-7.52Z"/></g><g id="LWPOLYLINE-180" data-name="LWPOLYLINE"><polyline class="cls-1" points="750.72 492.89 735.72 507.89 735.72 715.07 791.83 771.19 791.83 830.74 817.86 856.76"/></g><g id="CIRCLE-268" data-name="CIRCLE"><path class="cls-1" d="M1035.23,927.52a7.52,7.52,0,1,1-7.52,7.52,7.52,7.52,0,0,1,7.52-7.52Z"/></g><g id="LINE"><line class="cls-1" x1="325.7" y1="1340.69" x2="195.73" y2="1210.72"/></g><g id="CIRCLE-269" data-name="CIRCLE"><path class="cls-1" d="M817.86,849.24a7.52,7.52,0,1,1-7.52,7.52,7.52,7.52,0,0,1,7.52-7.52Z"/></g><g id="CIRCLE-270" data-name="CIRCLE"><path class="cls-1" d="M1673.47,152a7.52,7.52,0,1,1-7.52,7.52,7.52,7.52,0,0,1,7.52-7.52Z"/></g><g id="CIRCLE-271" data-name="CIRCLE"><path class="cls-1" d="M1862.47,2a7.52,7.52,0,1,1-7.52,7.52A7.52,7.52,0,0,1,1862.47,2Z"/></g><g id="CIRCLE-272" data-name="CIRCLE"><path class="cls-1" d="M1673.47,29a7.52,7.52,0,1,1-7.52,7.52,7.52,7.52,0,0,1,7.52-7.52Z"/></g><g id="CIRCLE-273" data-name="CIRCLE"><path class="cls-1" d="M1662.47,116a7.52,7.52,0,1,1-7.52,7.52,7.52,7.52,0,0,1,7.52-7.52Z"/></g></svg>