<?xml version="1.0" encoding="UTF-8"?>
<svg width="65.942" height="35.459" version="1.1" viewBox="71 45 65.942 35.459" xmlns="http://www.w3.org/2000/svg">
 <g transform="matrix(1.3084 0 0 -1.3084 9.7624 203.77)">
  <path d="m81.948 95.686-8.0223 8.0223-0.72-0.7203 8.7423-8.7423zm-19.899 22.779 7.3037-7.3037-0.72-0.7203-6.5837 6.584zm0 2.8797 8.7437-8.7437-0.7197-0.7197-8.024 8.024zm21.6-19.9 6.3499 6.3494-6.3499 6.3493v7.2003l13.55-13.55-13.55-13.55zm-21.6 0 19.899 19.899v-7.2003l-19.899-19.899zm-15.247 6.3494 13.546 13.55v-7.2009l-6.3468-6.349 6.3468-6.3491v-7.2008zm30.004-1.2065 5.1426-5.1426v-1.4394l-5.8623 5.8623zm-1.4397-1.44 6.5823-6.5823v-1.44l-7.3026 7.3023zm-7.4529 4.5732-5.864 5.864v-1.44l5.144-5.144z" fill="#18bc9c" fill-rule="evenodd" />
 </g>
</svg>
